<?xml version="1.0" encoding="UTF-8" standalone="no"?>
<!-- Created with Inkscape (http://www.inkscape.org/) -->

<svg
   xmlns:dc="http://purl.org/dc/elements/1.1/"
   xmlns:cc="http://creativecommons.org/ns#"
   xmlns:rdf="http://www.w3.org/1999/02/22-rdf-syntax-ns#"
   xmlns:svg="http://www.w3.org/2000/svg"
   xmlns="http://www.w3.org/2000/svg"
   xmlns:sodipodi="http://sodipodi.sourceforge.net/DTD/sodipodi-0.dtd"
   xmlns:inkscape="http://www.inkscape.org/namespaces/inkscape"
   version="1.0"
   width="99.980812"
   height="100.08178"
   id="svg2"
   xml:space="preserve"
   style="fill-rule:evenodd"
   inkscape:version="0.47 r22583"
   sodipodi:docname="Smith_chart_gen.svg"
   inkscape:export-filename="/home/jolson/Skrivbord/Smithdiagram.png"
   inkscape:export-xdpi="90.017273"
   inkscape:export-ydpi="90.017273"><metadata
   id="metadata1549"><rdf:RDF><cc:Work
       rdf:about=""><dc:format>image/svg+xml</dc:format><dc:type
         rdf:resource="http://purl.org/dc/dcmitype/StillImage" /><dc:title></dc:title></cc:Work></rdf:RDF></metadata><sodipodi:namedview
   pagecolor="#ffffff"
   bordercolor="#666666"
   borderopacity="1"
   objecttolerance="10"
   gridtolerance="10"
   guidetolerance="10"
   inkscape:pageopacity="0"
   inkscape:pageshadow="2"
   inkscape:window-width="1280"
   inkscape:window-height="696"
   id="namedview1547"
   showgrid="false"
   borderlayer="true"
   inkscape:showpageshadow="false"
   showguides="true"
   inkscape:guide-bbox="true"
   inkscape:zoom="4.7561105"
   inkscape:cx="59.767303"
   inkscape:cy="50.04089"
   inkscape:window-x="0"
   inkscape:window-y="25"
   inkscape:window-maximized="1"
   inkscape:current-layer="svg2" />
 <defs
   id="defs4"><inkscape:perspective
   sodipodi:type="inkscape:persp3d"
   inkscape:vp_x="0 : 650 : 1"
   inkscape:vp_y="0 : 1000 : 0"
   inkscape:vp_z="1300 : 650 : 1"
   inkscape:persp3d-origin="650 : 433.33333 : 1"
   id="perspective1551" />
  <style
   type="text/css"
   id="style6" />
 </defs>
<path
   style="fill:none;stroke:#000000;stroke-width:0.060497;stroke-opacity:1"
   id="path8"
   d="m 95.395719,48.750657 c -2.361134,-1.4887 -3.81975,-4.174376 -3.81975,-6.994063 0,-3.527115 2.22439,-6.751568 5.560973,-7.882907" /><path
   style="fill:none;stroke:#000000;stroke-width:0.12099399;stroke-opacity:1"
   id="path10"
   d="m 99.808033,50.033328 c -0.519633,-0.04193 -0.911635,-0.465847 -0.911635,-0.980008 0,-0.508693 0.382887,-0.925309 0.884285,-0.973627" /><path
   style="fill:none;stroke:#000000;stroke-width:0.060497;stroke-opacity:1"
   id="path12"
   d="m 98.659372,49.065171 c -0.01824,-0.09663 -0.03646,-0.199648 -0.03646,-0.302663 0,-0.65273 0.501398,-1.197888 1.148659,-1.264438" /><path
   style="fill:none;stroke:#000000;stroke-width:0.060497;stroke-opacity:1"
   id="path14"
   d="m 98.431464,49.143572 c -0.136746,-0.253435 -0.209676,-0.532395 -0.209676,-0.815914 0,-0.877904 0.665493,-1.609947 1.540662,-1.70111" /><path
   style="fill:none;stroke:#000000;stroke-width:0.12099399;stroke-opacity:1"
   id="path16"
   d="m 97.410433,47.559151 c 0,-0.01824 0,-0.03646 0,-0.0547 0,-1.216121 0.911635,-2.257208 2.160574,-2.456855" /><path
   style="fill:none;stroke:#000000;stroke-width:0.060497;stroke-opacity:1"
   id="path18"
   d="m 97.173408,47.534536 c -0.01824,-0.120336 -0.02735,-0.242494 -0.02735,-0.363742 0,-1.403006 1.011915,-2.594513 2.379368,-2.830626" /><path
   style="fill:none;stroke:#000000;stroke-width:0.060497;stroke-opacity:1"
   id="path20"
   d="m 96.845219,47.589234 c -0.0547,-0.236113 -0.08205,-0.478608 -0.08205,-0.726573 0,-1.542487 1.14866,-2.861622 2.725788,-3.127819" /><path
   style="fill:none;stroke:#000000;stroke-width:0.060497;stroke-opacity:1"
   id="path22"
   d="m 96.599078,47.84358 c -0.164094,-0.42391 -0.246141,-0.872434 -0.246141,-1.320047 0,-1.735753 1.212473,-3.242685 2.917231,-3.592754" /><path
   style="fill:none;stroke:#000000;stroke-width:0.060497;stroke-opacity:1"
   id="path24"
   d="m 99.771567,50.063411 c -2.260854,-0.07202 -4.056775,-1.92355 -4.056775,-4.187139 0,-2.020182 1.440383,-3.750466 3.418631,-4.119678" /><path
   style="fill:none;stroke:#000000;stroke-width:0.12099399;stroke-opacity:1"
   id="path26"
   d="m 96.052097,48.224643 c -0.720192,-0.895224 -1.121312,-2.009243 -1.121312,-3.158815 0,-2.383925 1.677409,-4.434192 4.020311,-4.900037" /><path
   style="fill:none;stroke:#000000;stroke-width:0.060497;stroke-opacity:1"
   id="path28"
   d="m 94.402037,45.556288 c -0.0547,-0.320896 -0.08205,-0.641791 -0.08205,-0.968157 0,-2.613656 1.750339,-4.894568 4.275567,-5.56006" /><path
   style="fill:none;stroke:#000000;stroke-width:0.060497;stroke-opacity:1"
   id="path30"
   d="m 95.66921,48.399678 c -1.230707,-1.186037 -2.014713,-2.84339 -2.014713,-4.580054 0,-2.849772 1.932666,-5.342181 4.649338,-6.086075" /><path
   style="fill:none;stroke:#000000;stroke-width:0.060497;stroke-opacity:1"
   id="path32"
   d="m 93.381006,45.889035 c -0.346421,-0.871523 -0.546981,-1.894377 -0.583446,-2.849771 -0.127629,-3.236304 1.996481,-5.989442 5.041341,-6.9813" /><path
   style="fill:none;stroke:#000000;stroke-width:0.12099399;stroke-opacity:1"
   id="path34"
   d="m 92.287044,46.584613 c -1.449499,-1.730284 -2.306435,-4.065893 -2.352018,-6.340421 -0.100277,-4.071363 2.361135,-7.882908 6.080605,-9.461859" /><path
   style="fill:none;stroke:#000000;stroke-width:0.12099399;stroke-opacity:1"
   id="path36"
   d="M 88.339666,42.325454 C 88.011476,41.533244 87.765335,40.710037 87.619473,39.869509 86.653141,34.612111 89.151021,29.33101 93.94622,26.523175" /><path
   style="fill:none;stroke:#000000;stroke-width:0.12099399;stroke-opacity:1"
   id="path38"
   d="M 86.634908,43.396625 C 85.139827,41.430229 84.109679,39.16755 83.599164,36.765393 82.285498,30.497902 84.711358,24.025294 89.843863,20.074268" /><line
   style="fill:none;stroke:#000000;stroke-width:0.060497;stroke-opacity:1"
   class="fil0 str0"
   x1="95.204269"
   y1="49.156334"
   x2="94.976364"
   y2="49.06517"
   id="line40" /><path
   style="fill:none;stroke:#000000;stroke-width:0.060497;stroke-opacity:1"
   id="path42"
   d="M 93.918871,48.569242 C 91.466573,47.243724 89.62507,45.205309 88.394363,42.433938" /><path
   style="fill:none;stroke:#000000;stroke-width:0.060497;stroke-opacity:1"
   id="path44"
   d="M 91.357176,47.728715 C 89.442743,46.426899 88.50376,45.924589 86.653141,43.432179" /><path
   style="fill:none;stroke:#000000;stroke-width:0.060497;stroke-opacity:1"
   id="path46"
   d="m 89.72535,41.865991 c -0.774889,-3.944645 0.364654,-8.373368 4.348499,-10.872159" /><path
   style="fill:none;stroke:#000000;stroke-width:0.060497;stroke-opacity:1"
   id="path48"
   d="M 89.360696,41.980856 C 88.029709,36.542042 90.855778,31.351193 95.322789,29.33101" /><path
   style="fill:none;stroke:#000000;stroke-width:0.060497;stroke-opacity:1"
   id="path50"
   d="M 89.023391,42.047405 C 87.355099,36.112662 90.317913,30.825179 94.921669,28.465869" /><path
   style="fill:none;stroke:#000000;stroke-width:0.060497;stroke-opacity:1"
   id="path52"
   d="M 88.695203,42.162272 C 86.735188,36.378859 89.333348,30.074904 94.456735,27.546028" /><path
   style="fill:none;stroke:#000000;stroke-width:0.060497;stroke-opacity:1"
   id="path54"
   d="m 98.194438,49.41615 c -0.410235,-0.399296 -0.683725,-0.925309 -0.756656,-1.500551 -0.0091,-0.06017 -0.01824,-0.133098 -0.01824,-0.193266" /><path
   style="fill:none;stroke:#000000;stroke-width:0.060497;stroke-opacity:1"
   id="path56"
   d="M 87.965895,42.470404 C 84.75694,35.325921 88.284967,28.205141 93.399239,25.5614" /><path
   style="fill:none;stroke:#000000;stroke-width:0.060497;stroke-opacity:1"
   id="path58"
   d="m 87.637706,42.64635 c -3.837983,-7.150865 -0.0547,-15.444919 5.032225,-18.367621" /><path
   style="fill:none;stroke:#000000;stroke-width:0.060497;stroke-opacity:1"
   id="path60"
   d="M 87.273052,42.851467 C 83.041243,36.142746 85.896483,26.589724 91.895042,23.00244" /><path
   style="fill:none;stroke:#000000;stroke-width:0.060497;stroke-opacity:1"
   id="path62"
   d="M 86.88105,43.099432 C 82.006538,35.477252 84.310239,26.088325 90.919592,21.634988" /><path
   style="fill:none;stroke:#000000;stroke-width:0.060497;stroke-opacity:1"
   id="path64"
   d="M 86.215556,43.638208 C 80.149537,36.354245 80.706546,25.246886 88.531108,18.410535" /><path
   style="fill:none;stroke:#000000;stroke-width:0.060497;stroke-opacity:1"
   id="path66"
   d="m 85.850902,43.928109 c -7.183683,-7.4043 -6.699605,-20.459823 1.139543,-27.27156" /><path
   style="fill:none;stroke:#000000;stroke-width:0.060497;stroke-opacity:1"
   id="path68"
   d="M 85.477132,44.285469 C 77.03995,36.009648 77.251449,22.639609 85.066895,14.635455" /><path
   style="fill:none;stroke:#000000;stroke-width:0.060497;stroke-opacity:1"
   id="path70"
   d="M 85.194525,44.624597 C 75.605949,36.801859 74.535689,21.532884 82.726729,12.536872" /><path
   style="fill:none;stroke:#000000;stroke-width:0.12099399;stroke-opacity:1"
   id="path72"
   d="M 84.875453,45.023893 C 77.863157,40.020841 75.914993,32.367666 75.412682,29.990122 74.076225,23.625998 75.394449,16.075838 79.96174,10.17756" /><path
   style="fill:none;stroke:#000000;stroke-width:0.060497;stroke-opacity:1"
   id="path74"
   d="m 93.809475,49.294903 c -2.862534,-0.652731 -6.800797,-2.523406 -8.81551,-4.180758" /><path
   style="fill:none;stroke:#000000;stroke-width:0.060497;stroke-opacity:1"
   id="path76"
   d="M 89.397162,48.950305 C 87.52831,48.539157 85.513597,47.98853 83.78149,47.389586" /><path
   style="fill:none;stroke:#000000;stroke-width:0.060497;stroke-opacity:1"
   id="path78"
   d="M 83.863538,46.796112 C 78.800317,44.709379 73.943127,41.375531 71.323087,38.665239" /><path
   style="fill:none;stroke:#000000;stroke-width:0.060497;stroke-opacity:1"
   id="path80"
   d="M 84.064097,46.342117 C 79.169529,44.140519 75.061703,40.09286 72.672308,37.382569" /><path
   style="fill:none;stroke:#000000;stroke-width:0.060497;stroke-opacity:1"
   id="path82"
   d="M 84.328472,45.870803 C 79.605291,43.438561 75.89676,38.889502 74.045229,36.347864" /><path
   style="fill:none;stroke:#000000;stroke-width:0.060497;stroke-opacity:1"
   id="path84"
   d="M 84.58373,45.458743 C 79.974503,42.633587 76.858535,37.921346 75.460999,35.495485" /><path
   style="fill:none;stroke:#000000;stroke-width:0.12099399;stroke-opacity:1"
   id="path86"
   d="M 83.653862,47.353121 C 78.443869,45.435041 72.805406,42.506869 70.040417,40.135707" /><path
   style="fill:none;stroke:#000000;stroke-width:0.060497;stroke-opacity:1"
   id="path88"
   d="M 83.498884,47.867283 C 78.267923,46.288331 72.236546,44.092203 68.957395,41.834995" /><path
   style="fill:none;stroke:#000000;stroke-width:0.060497;stroke-opacity:1"
   id="path90"
   d="M 83.350287,48.447994 C 78.086507,47.153473 71.474419,45.458743 68.025704,43.746693" /><path
   style="fill:none;stroke:#000000;stroke-width:0.060497;stroke-opacity:1"
   id="path92"
   d="M 83.270975,48.998622 C 77.978022,48.079693 71.129821,47.06231 67.342889,45.779639" /><path
   style="fill:none;stroke:#000000;stroke-width:0.060497;stroke-opacity:1"
   id="path94"
   d="M 83.22904,49.458997 C 77.996255,48.986771 71.050509,48.387826 66.937212,47.813496" /><path
   style="fill:none;stroke:#000000;stroke-width:0.060497;stroke-opacity:1"
   id="path96"
   d="M 76.162958,34.974941 C 72.97497,27.690978 72.006814,18.598332 78.189522,8.9249742" /><path
   style="fill:none;stroke:#000000;stroke-width:0.12099399;stroke-opacity:1"
   id="path98"
   d="M 75.424533,35.367856 C 70.040417,25.507613 72.066982,13.710146 76.350755,7.7334674" /><path
   style="fill:none;stroke:#000000;stroke-width:0.12099399;stroke-opacity:1"
   id="path100"
   d="M 73.97321,36.214765 C 67.657403,26.958935 67.178795,15.004667 71.800784,5.1681268" /><path
   style="fill:none;stroke:#000000;stroke-width:0.12099399;stroke-opacity:1"
   id="path102"
   d="M 72.569293,37.261322 C 64.85595,28.434873 62.07911,14.248921 66.102155,2.8325176" /><path
   style="fill:none;stroke:#000000;stroke-width:0.060497;stroke-opacity:1"
   id="path104"
   d="M 74.75357,35.718836 C 70.983959,30.04482 67.910838,17.430527 74.221175,6.5291978" /><path
   style="fill:none;stroke:#000000;stroke-width:0.060497;stroke-opacity:1"
   id="path106"
   d="M 73.222935,36.74169 C 67.136861,28.356472 64.148521,15.991056 69.193509,3.9948518" /><path
   style="fill:none;stroke:#000000;stroke-width:0.060497;stroke-opacity:1"
   id="path108"
   d="M 71.885566,37.903113 C 64.287089,29.941805 58.964053,16.711248 62.774687,1.8105749" /><path
   style="fill:none;stroke:#000000;stroke-width:0.12099399;stroke-opacity:1"
   id="path110"
   d="M 71.244687,38.550374 C 61.564947,29.512426 56.23553,15.30733 58.987755,0.96384843" /><path
   style="fill:none;stroke:#000000;stroke-width:0.060497;stroke-opacity:1"
   id="path112"
   d="M 70.55458,39.3125 C 61.940542,31.980221 53.295508,18.756045 54.631964,0.3402901" /><path
   style="fill:none;stroke:#000000;stroke-width:0.12099399;stroke-opacity:1"
   id="path114"
   d="M 69.955635,40.062776 C 59.230251,32.161636 49.640763,16.741331 49.967128,0.14064206" /><path
   style="fill:none;stroke:#000000;stroke-width:0.060497;stroke-opacity:1"
   id="path116"
   d="M 69.381306,40.861368 C 64.58337,37.933196 60.924068,34.224666 58.431658,31.447826" /><path
   style="fill:none;stroke:#000000;stroke-width:0.12099399;stroke-opacity:1"
   id="path118"
   d="M 68.830677,41.762976 C 55.188973,33.47439 43.759806,21.163673 39.004719,1.3148278" /><path
   style="fill:none;stroke:#000000;stroke-width:0.060497;stroke-opacity:1"
   id="path120"
   d="M 59.114473,30.61915 C 52.053861,21.756235 48.430112,12.911554 47.378085,0.20172157" /><path
   style="fill:none;stroke:#000000;stroke-width:0.060497;stroke-opacity:1"
   id="path122"
   d="M 57.578368,32.028537 C 53.996555,28.235224 50.421122,23.450053 47.752766,18.441531 44.691497,12.693673 42.840878,6.474499 41.921038,0.78790286" /><path
   style="fill:none;stroke:#000000;stroke-width:0.12099399;stroke-opacity:1"
   id="path124"
   d="M 58.30403,31.33296 C 53.645575,25.755578 51.249799,21.296771 49.416501,17.485226 47.13012,12.730138 45.859301,8.858425 44.770809,0.37128573" /><path
   style="fill:none;stroke:#000000;stroke-width:0.060497;stroke-opacity:1"
   id="path126"
   d="M 68.3466,42.628117 C 63.712759,40.431988 58.365109,36.959571 55.467021,34.53371" /><path
   style="fill:none;stroke:#000000;stroke-width:0.060497;stroke-opacity:1"
   id="path128"
   d="M 67.524305,44.636449 C 62.968866,42.984566 55.726837,40.122944 52.962761,38.296028" /><path
   style="fill:none;stroke:#000000;stroke-width:0.060497;stroke-opacity:1"
   id="path130"
   d="M 66.943593,46.747794 C 61.86761,45.827956 54.480633,43.801391 51.122169,42.761215" /><path
   style="fill:none;stroke:#000000;stroke-width:0.060497;stroke-opacity:1"
   id="path132"
   d="M 66.659164,48.932072 C 61.667962,48.55739 54.10595,48.109778 50.173157,47.582852" /><path
   style="fill:none;stroke:#000000;stroke-width:0.060497;stroke-opacity:1"
   id="path134"
   d="M 56.089668,33.61387 C 52.423072,30.389418 47.577733,25.2715 44.389746,20.365081 40.849868,14.926267 37.299049,7.2375377 35.94983,2.1187075" /><path
   style="fill:none;stroke:#000000;stroke-width:0.060497;stroke-opacity:1"
   id="path136"
   d="M 54.710365,35.337773 C 49.597916,31.76234 43.348658,25.574162 39.585429,20.800842 35.665399,15.833343 31.921315,9.7536496 29.694191,4.4780186" /><path
   style="fill:none;stroke:#000000;stroke-width:0.12099399;stroke-opacity:1"
   id="path138"
   d="M 55.357626,34.436165 C 46.809224,27.715593 37.72296,16.746802 32.858475,3.1351805" /><path
   style="fill:none;stroke:#000000;stroke-width:0.12099399;stroke-opacity:1"
   id="path140"
   d="M 67.887135,43.698376 C 57.082438,38.846655 50.070143,34.006785 43.681405,28.193289 37.184183,22.276779 31.552103,15.313711 26.446036,6.0396495" /><path
   style="fill:none;stroke:#000000;stroke-width:0.12099399;stroke-opacity:1"
   id="path142"
   d="M 67.185177,45.749555 C 44.709729,38.853037 30.717045,31.012065 13.906498,15.700245" /><path
   style="fill:none;stroke:#000000;stroke-width:0.12099399;stroke-opacity:1"
   id="path144"
   d="M 52.980081,38.314261 C 42.162621,32.457918 29.90022,23.704399 20.08647,10.17756" /><path
   style="fill:none;stroke:#000000;stroke-width:0.060497;stroke-opacity:1"
   id="path146"
   d="M 53.410373,37.261322 C 41.280158,29.772241 30.995094,20.498179 23.306365,7.9085005" /><path
   style="fill:none;stroke:#000000;stroke-width:0.060497;stroke-opacity:1"
   id="path148"
   d="M 52.302737,39.318882 C 47.547649,37.207536 41.733242,33.643955 38.974634,31.817038" /><path
   style="fill:none;stroke:#000000;stroke-width:0.060497;stroke-opacity:1"
   id="path150"
   d="M 51.358283,41.568797 C 46.543028,39.578698 39.651978,37.037972 36.887902,35.349624" /><path
   style="fill:none;stroke:#000000;stroke-width:0.060497;stroke-opacity:1"
   id="path152"
   d="M 50.657235,43.861558 C 45.714351,42.531483 38.981016,40.716419 35.260634,39.257803" /><path
   style="fill:none;stroke:#000000;stroke-width:0.060497;stroke-opacity:1"
   id="path154"
   d="m 50.19686,46.305652 c -5.009434,-0.870611 -12.317099,-1.857 -16.104031,-2.85524" /><path
   style="fill:none;stroke:#000000;stroke-width:0.060497;stroke-opacity:1"
   id="path156"
   d="M 49.925192,48.750657 C 45.411689,48.605708 38.490556,48.212793 33.487503,47.84358" /><path
   style="fill:none;stroke:#000000;stroke-width:0.12099399;stroke-opacity:1"
   id="path158"
   d="M 50.983601,42.736601 C 30.886609,36.275844 21.237866,30.61915 8.3655802,22.614996" /><path
   style="fill:none;stroke:#000000;stroke-width:0.12099399;stroke-opacity:1"
   id="path160"
   d="M 66.779499,47.782501 C 39.651978,44.21892 24.685669,38.738171 3.9386813,30.928194" /><path
   style="fill:none;stroke:#000000;stroke-width:0.12099399;stroke-opacity:1"
   id="path162"
   d="M 50.015445,47.571001 C 31.364306,45.386725 22.074746,44.376632 1.0855372,40.268805" /><path
   style="fill:none;stroke:#000000;stroke-width:0.060497;stroke-opacity:1"
   id="path164"
   d="M 39.452331,30.740397 C 33.161139,26.414689 22.988205,16.929129 18.78739,11.144805" /><path
   style="fill:none;stroke:#000000;stroke-width:0.060497;stroke-opacity:1"
   id="path166"
   d="M 39.004719,31.375808 C 32.483793,27.213282 21.914298,17.817973 17.516572,12.197743" /><path
   style="fill:none;stroke:#000000;stroke-width:0.060497;stroke-opacity:1"
   id="path168"
   d="M 38.599953,32.058622 C 31.708904,28.035577 21.155818,18.701347 16.255781,13.31085" /><path
   style="fill:none;stroke:#000000;stroke-width:0.060497;stroke-opacity:1"
   id="path170"
   d="M 38.122256,32.766962 C 31.231208,28.737535 19.967958,19.850918 15.067009,14.466803" /><path
   style="fill:none;stroke:#000000;stroke-width:0.060497;stroke-opacity:1"
   id="path172"
   d="M 37.340984,34.200963 C 29.622172,30.093136 18.79286,22.78456 12.674879,16.964682" /><path
   style="fill:none;stroke:#000000;stroke-width:0.060497;stroke-opacity:1"
   id="path174"
   d="M 36.899753,34.993174 C 29.18641,30.891729 18.603241,24.376274 11.582739,18.283818" /><path
   style="fill:none;stroke:#000000;stroke-width:0.060497;stroke-opacity:1"
   id="path176"
   d="M 36.555155,35.695134 C 28.527299,31.629241 17.820146,25.724582 10.485131,19.669503" /><path
   style="fill:none;stroke:#000000;stroke-width:0.060497;stroke-opacity:1"
   id="path178"
   d="M 36.197795,36.432646 C 27.655775,32.446066 17.049814,26.947085 9.401197,21.085272" /><path
   style="fill:none;stroke:#000000;stroke-width:0.060497;stroke-opacity:1"
   id="path180"
   d="M 35.538682,38.084529 C 26.627451,34.321299 15.411606,29.524277 7.3162882,24.110076" /><path
   style="fill:none;stroke:#000000;stroke-width:0.060497;stroke-opacity:1"
   id="path182"
   d="M 35.217787,38.889502 C 26.003893,35.277605 15.065185,30.963748 6.4484118,25.77381" /><path
   style="fill:none;stroke:#000000;stroke-width:0.060497;stroke-opacity:1"
   id="path184"
   d="M 34.95797,39.723648 C 25.707612,36.402562 14.370519,32.240949 5.5303955,27.419312" /><path
   style="fill:none;stroke:#000000;stroke-width:0.060497;stroke-opacity:1"
   id="path186"
   d="M 34.697243,40.540473 C 25.338399,37.558515 14.70509,33.952999 4.6379048,29.094897" /><path
   style="fill:none;stroke:#000000;stroke-width:0.060497;stroke-opacity:1"
   id="path188"
   d="M 33.282386,49.108017 C 28.762499,48.962156 21.738353,48.926603 16.707952,48.684107" /><path
   style="fill:none;stroke:#000000;stroke-width:0.060497;stroke-opacity:1"
   id="path190"
   d="M 33.31794,48.266579 C 28.805347,48.115247 21.784846,47.547299 16.753533,47.311186" /><path
   style="fill:none;stroke:#000000;stroke-width:0.060497;stroke-opacity:1"
   id="path192"
   d="M 33.379019,47.329419 C 28.890129,47.104244 21.878745,46.378583 16.874781,45.906356" /><path
   style="fill:none;stroke:#000000;stroke-width:0.060497;stroke-opacity:1"
   id="path194"
   d="M 33.463801,46.469746 C 28.998614,46.148851 22.0711,44.999279 17.067135,44.521582" /><path
   style="fill:none;stroke:#000000;stroke-width:0.060497;stroke-opacity:1"
   id="path196"
   d="M 33.681682,44.714849 C 26.155224,43.516961 22.406582,42.706518 17.508366,41.80491" /><path
   style="fill:none;stroke:#000000;stroke-width:0.060497;stroke-opacity:1"
   id="path198"
   d="M 33.874949,43.85609 C 28.369585,42.979097 22.594378,41.508629 17.807382,40.473924" /><path
   style="fill:none;stroke:#000000;stroke-width:0.060497;stroke-opacity:1"
   id="path200"
   d="M 34.019899,43.032883 C 29.144475,42.034642 23.288132,40.443839 18.141042,39.16755" /><path
   style="fill:none;stroke:#000000;stroke-width:0.060497;stroke-opacity:1"
   id="path202"
   d="M 34.237779,42.137657 C 29.627642,41.0911 23.20335,39.294267 18.514812,37.878499" /><path
   style="fill:none;stroke:#000000;stroke-width:0.060497;stroke-opacity:1"
   id="path204"
   d="M 16.555708,49.397918 C 12.039469,49.252967 5.1557138,49.264819 0.12485631,49.023235" /><path
   style="fill:none;stroke:#000000;stroke-width:0.060497;stroke-opacity:1"
   id="path206"
   d="M 16.581234,48.654024 C 12.064995,48.502693 5.1867095,48.296663 0.15566957,48.055079" /><path
   style="fill:none;stroke:#000000;stroke-width:0.060497;stroke-opacity:1"
   id="path208"
   d="M 16.629551,47.970297 C 12.113311,47.825347 5.2104114,47.304804 0.17991904,47.06231" /><path
   style="fill:none;stroke:#000000;stroke-width:0.060497;stroke-opacity:1"
   id="path210"
   d="M 16.626816,47.292042 C 12.13519,47.07416 5.3225429,46.475216 0.26825646,46.045836" /><path
   style="fill:none;stroke:#000000;stroke-width:0.12099399;stroke-opacity:1"
   id="path212"
   d="M 16.715244,46.518063 C 12.222708,46.300182 5.4164414,45.483357 0.36142563,45.053978" /><path
   style="fill:none;stroke:#000000;stroke-width:0.12099399;stroke-opacity:1"
   id="path214"
   d="M 17.85023,39.766495 C 13.455238,38.701705 7.4457401,36.971423 2.3187058,35.404322" /><path
   style="fill:none;stroke:#000000;stroke-width:0.060497;stroke-opacity:1"
   id="path216"
   d="M 16.74624,45.870803 C 12.269201,45.441422 5.4966647,44.733082 0.4679045,44.067588" /><path
   style="fill:none;stroke:#000000;stroke-width:0.060497;stroke-opacity:1"
   id="path218"
   d="M 16.819171,45.162462 C 12.343043,44.733082 5.6188239,43.795009 0.59006363,43.130428" /><path
   style="fill:none;stroke:#000000;stroke-width:0.060497;stroke-opacity:1"
   id="path220"
   d="M 16.911245,44.485117 C 12.435119,44.055737 5.7956808,42.7913 0.76673847,42.125806" /><path
   style="fill:none;stroke:#000000;stroke-width:0.060497;stroke-opacity:1"
   id="path222"
   d="M 17.000586,43.807772 C 12.571864,43.208829 5.9451895,41.94439 0.91679354,41.23058" /><path
   style="fill:none;stroke:#000000;stroke-width:0.060497;stroke-opacity:1"
   id="path224"
   d="M 17.246727,42.446701 C 12.818005,41.847758 6.4374728,40.359057 1.3111669,39.185783" /><path
   style="fill:none;stroke:#000000;stroke-width:0.060497;stroke-opacity:1"
   id="path226"
   d="M 17.386208,41.774827 C 12.9821,40.934299 6.6872602,39.45745 1.536523,38.254093" /><path
   style="fill:none;stroke:#000000;stroke-width:0.060497;stroke-opacity:1"
   id="path228"
   d="M 17.524777,41.0911 C 12.854471,40.15394 7.0956727,38.683472 1.7771946,37.292318" /><path
   style="fill:none;stroke:#000000;stroke-width:0.060497;stroke-opacity:1"
   id="path230"
   d="M 17.673373,40.437458 C 11.146979,38.791957 7.3062604,37.854797 2.0515967,36.324162" /><path
   style="fill:none;stroke:#000000;stroke-width:0.060497;stroke-opacity:1"
   id="path232"
   d="M 18.00612,39.112853 C 11.479726,37.467351 7.828627,36.088048 2.5739635,34.557413" /><path
   style="fill:none;stroke:#000000;stroke-width:0.060497;stroke-opacity:1"
   id="path234"
   d="M 18.192093,38.441889 C 11.834351,36.650526 8.1677554,35.265753 2.9130918,33.637573" /><path
   style="fill:none;stroke:#000000;stroke-width:0.060497;stroke-opacity:1"
   id="path236"
   d="M 18.382624,37.842945 C 12.309312,36.021498 8.4157202,34.418845 3.2348988,32.706794" /><path
   style="fill:none;stroke:#000000;stroke-width:0.060497;stroke-opacity:1"
   id="path238"
   d="M 18.593212,37.152837 C 12.188065,35.216525 8.6709777,33.632103 3.5375616,31.908202" /><line
   style="fill:none;stroke:#000000;stroke-width:0.12099399;stroke-opacity:1"
   class="fil0 str1"
   x1="0.062500037"
   y1="50.063412"
   x2="99.908318"
   y2="50.063412"
   id="line240" /><path
   style="fill:none;stroke:#000000;stroke-width:0.060497;stroke-opacity:1"
   id="path242"
   d="m 95.46865,51.364314 c -2.415832,1.511491 -3.892681,4.167995 -3.892681,7.023235 0,3.527116 2.251738,6.666787 5.579206,7.821828" /><path
   style="fill:none;stroke:#000000;stroke-width:0.12099399;stroke-opacity:1"
   id="path244"
   d="m 99.808033,50.124491 c -0.519633,0.03555 -0.911635,0.464934 -0.911635,0.980007 0,0.5014 0.382887,0.92531 0.884285,0.973626" /><path
   style="fill:none;stroke:#000000;stroke-width:0.060497;stroke-opacity:1"
   id="path246"
   d="m 98.659372,51.086266 c -0.01824,0.1021 -0.03646,0.199648 -0.03646,0.301751 0,0.653643 0.501398,1.197888 1.148659,1.264438" /><path
   style="fill:none;stroke:#000000;stroke-width:0.060497;stroke-opacity:1"
   id="path248"
   d="m 98.431464,51.013334 c -0.136746,0.247965 -0.209676,0.526014 -0.209676,0.810444 0,0.876993 0.665493,1.609036 1.540662,1.693818" /><path
   style="fill:none;stroke:#000000;stroke-width:0.12099399;stroke-opacity:1"
   id="path250"
   d="m 97.410433,52.495653 c 0,0.04832 0,0.103012 0,0.151331 0,1.21521 0.911635,2.255386 2.160574,2.455033" /><path
   style="fill:none;stroke:#000000;stroke-width:0.060497;stroke-opacity:1"
   id="path252"
   d="m 97.19164,52.471039 c -0.03646,0.169564 -0.04558,0.339128 -0.04558,0.507781 0,1.397536 1.011915,2.595424 2.379367,2.825156" /><path
   style="fill:none;stroke:#000000;stroke-width:0.060497;stroke-opacity:1"
   id="path254"
   d="m 96.899918,52.392638 c -0.09117,0.290812 -0.136746,0.592564 -0.136746,0.895226 0,1.536105 1.148659,2.85524 2.725788,3.121438" /><path
   style="fill:none;stroke:#000000;stroke-width:0.060497;stroke-opacity:1"
   id="path256"
   d="m 96.599078,52.314238 c -0.164094,0.417529 -0.246141,0.857848 -0.246141,1.311843 0,1.748516 1.230706,3.254536 2.953696,3.600046" /><path
   style="fill:none;stroke:#000000;stroke-width:0.060497;stroke-opacity:1"
   id="path258"
   d="m 99.771567,50.093495 c -2.260854,0.06655 -4.056775,1.91808 -4.056775,4.179846 0,2.014713 1.440383,3.744997 3.418631,4.114208" /><path
   style="fill:none;stroke:#000000;stroke-width:0.12099399;stroke-opacity:1"
   id="path260"
   d="m 96.052097,51.933174 c -0.720192,0.888845 -1.121312,2.001951 -1.121312,3.145141 0,2.365692 1.668293,4.41049 3.983846,4.888186" /><path
   style="fill:none;stroke:#000000;stroke-width:0.060497;stroke-opacity:1"
   id="path262"
   d="m 94.411154,54.515837 c -0.06381,0.344597 -0.09116,0.695577 -0.09116,1.040174 0,2.607277 1.750339,4.888187 4.266451,5.55368" /><path
   style="fill:none;stroke:#000000;stroke-width:0.060497;stroke-opacity:1"
   id="path264"
   d="m 95.705676,51.703443 c -1.230708,1.185125 -2.051179,2.884412 -2.051179,4.621077 0,2.843389 1.877968,5.317567 4.612873,6.06146" /><path
   style="fill:none;stroke:#000000;stroke-width:0.060497;stroke-opacity:1"
   id="path266"
   d="m 93.399239,54.236876 c -0.346421,0.871523 -0.565214,1.911698 -0.601679,2.868003 -0.127629,3.236305 1.941782,5.976678 4.986643,6.969449" /><path
   style="fill:none;stroke:#000000;stroke-width:0.12099399;stroke-opacity:1"
   id="path268"
   d="m 92.32351,53.517596 c -1.449499,1.730282 -2.342903,4.107827 -2.388484,6.375974 -0.09116,4.065893 2.361135,7.876526 6.080605,9.443626" /><path
   style="fill:none;stroke:#000000;stroke-width:0.12099399;stroke-opacity:1"
   id="path270"
   d="m 88.357898,57.770373 c -0.337305,0.804062 -0.583446,1.6455 -0.738425,2.498791 -0.966332,5.251017 1.531548,10.525737 6.326747,13.320809" /><path
   style="fill:none;stroke:#000000;stroke-width:0.12099399;stroke-opacity:1"
   id="path272"
   d="m 86.634908,56.747518 c -1.495081,1.960016 -2.525229,4.222694 -3.035744,6.624852 -1.313666,6.255638 1.112194,12.716395 6.244699,16.661039" /><path
   style="fill:none;stroke:#000000;stroke-width:0.060497;stroke-opacity:1"
   id="path274"
   d="m 95.231625,50.892088 c -0.04559,0.02462 -1.394801,0.738424 -1.431266,0.756657 -2.388484,1.318224 -4.193521,3.338407 -5.405996,6.06146" /><path
   style="fill:none;stroke:#000000;stroke-width:0.060497;stroke-opacity:1"
   id="path276"
   d="m 91.402759,52.386257 c -1.914434,1.300903 -2.898999,1.838768 -4.749618,4.331178" /><path
   style="fill:none;stroke:#000000;stroke-width:0.060497;stroke-opacity:1"
   id="path278"
   d="m 89.734466,58.224367 c -0.747541,3.805164 0.455818,8.372456 4.284684,10.840251" /><path
   style="fill:none;stroke:#000000;stroke-width:0.060497;stroke-opacity:1"
   id="path280"
   d="m 89.369812,58.126822 c -1.330986,5.433345 1.476849,10.629664 5.94386,12.644377" /><path
   style="fill:none;stroke:#000000;stroke-width:0.060497;stroke-opacity:1"
   id="path282"
   d="m 89.032508,58.048421 c -1.677409,5.929273 1.267172,11.234078 5.861813,13.593389" /><path
   style="fill:none;stroke:#000000;stroke-width:0.060497;stroke-opacity:1"
   id="path284"
   d="m 88.70432,57.939937 c -1.960016,5.771561 0.601678,12.099219 5.734183,14.621712" /><path
   style="fill:none;stroke:#000000;stroke-width:0.060497;stroke-opacity:1"
   id="path286"
   d="m 98.194438,50.735286 c -0.410235,0.399296 -0.683725,0.931691 -0.756656,1.500551 -0.01824,0.108491 -0.01824,0.216969 -0.01824,0.326365" /><path
   style="fill:none;stroke:#000000;stroke-width:0.060497;stroke-opacity:1"
   id="path288"
   d="m 87.975012,57.619042 c -3.163374,7.12078 0.300838,14.288965 5.415111,16.932706" /><path
   style="fill:none;stroke:#000000;stroke-width:0.060497;stroke-opacity:1"
   id="path290"
   d="m 87.655939,57.444007 c -3.828867,7.138102 -0.100278,15.456771 4.986643,18.36671" /><path
   style="fill:none;stroke:#000000;stroke-width:0.060497;stroke-opacity:1"
   id="path292"
   d="m 87.282169,57.26168 c -4.264629,6.697783 -1.458616,16.238042 4.549058,19.818944" /><path
   style="fill:none;stroke:#000000;stroke-width:0.060497;stroke-opacity:1"
   id="path294"
   d="M 86.890165,57.008246 C 82.16425,64.648658 84.328472,74.032117 90.928708,78.47269" /><path
   style="fill:none;stroke:#000000;stroke-width:0.060497;stroke-opacity:1"
   id="path296"
   d="m 86.224672,56.494084 c -6.063284,7.2712 -5.530889,18.348476 2.288204,25.172975" /><path
   style="fill:none;stroke:#000000;stroke-width:0.060497;stroke-opacity:1"
   id="path298"
   d="m 85.869135,56.191422 c -7.189153,7.392446 -6.747922,20.43612 1.103077,27.236004" /><path
   style="fill:none;stroke:#000000;stroke-width:0.060497;stroke-opacity:1"
   id="path300"
   d="M 85.513597,55.815827 C 77.003485,63.94123 77.1849,77.346821 85.048664,85.445786" /><path
   style="fill:none;stroke:#000000;stroke-width:0.060497;stroke-opacity:1"
   id="path302"
   d="M 85.230991,55.489462 C 75.642414,63.299439 74.559392,78.611259 82.751343,87.597244" /><path
   style="fill:none;stroke:#000000;stroke-width:0.12099399;stroke-opacity:1"
   id="path304"
   d="m 84.893685,55.090166 c -7.012295,5.003053 -8.978692,12.668079 -9.481003,15.045622 -1.336457,6.358654 -0.04193,13.869615 4.525356,19.74966" /><path
   style="fill:none;stroke:#000000;stroke-width:0.060497;stroke-opacity:1"
   id="path306"
   d="m 95.094879,50.565722 c -0.03646,0.01185 -1.358335,0.308133 -1.3948,0.320895 -2.844301,0.670964 -6.700517,2.485118 -8.696998,4.125148" /><path
   style="fill:none;stroke:#000000;stroke-width:0.060497;stroke-opacity:1"
   id="path308"
   d="m 90.810195,50.873855 c -0.04558,0.01276 -1.49508,0.350979 -1.540663,0.357361 -1.832386,0.405677 -3.774167,0.938072 -5.469809,1.524254" /><path
   style="fill:none;stroke:#000000;stroke-width:0.060497;stroke-opacity:1"
   id="path310"
   d="m 83.863538,53.293334 c -5.063221,2.087644 -9.920411,5.432432 -12.540451,8.142723" /><path
   style="fill:none;stroke:#000000;stroke-width:0.060497;stroke-opacity:1"
   id="path312"
   d="m 84.027632,53.740946 c -4.894568,2.202511 -9.014246,6.219173 -11.410023,8.929465" /><path
   style="fill:none;stroke:#000000;stroke-width:0.060497;stroke-opacity:1"
   id="path314"
   d="m 84.346704,54.19494 c -4.71771,2.425861 -8.438093,6.90837 -10.288712,9.450009" /><path
   style="fill:none;stroke:#000000;stroke-width:0.060497;stroke-opacity:1"
   id="path316"
   d="m 84.601963,54.679018 c -4.615609,2.722142 -7.706962,7.362365 -9.104499,9.933175" /><path
   style="fill:none;stroke:#000000;stroke-width:0.12099399;stroke-opacity:1"
   id="path318"
   d="M 83.672095,52.785553 C 78.4621,54.702721 72.829108,57.600809 70.070501,59.966501" /><path
   style="fill:none;stroke:#000000;stroke-width:0.060497;stroke-opacity:1"
   id="path320"
   d="m 83.526232,52.284154 c -5.240077,1.571659 -11.313389,3.744085 -14.58707,5.993999" /><path
   style="fill:none;stroke:#000000;stroke-width:0.060497;stroke-opacity:1"
   id="path322"
   d="m 83.37399,51.69068 c -5.262868,1.28814 -11.869487,3.036656 -15.317291,4.748705" /><path
   style="fill:none;stroke:#000000;stroke-width:0.060497;stroke-opacity:1"
   id="path324"
   d="m 83.283738,51.152815 c -5.293864,0.918928 -12.135684,1.952722 -15.923527,3.235392" /><path
   style="fill:none;stroke:#000000;stroke-width:0.060497;stroke-opacity:1"
   id="path326"
   d="m 83.235421,50.680589 c -5.26378,0.405677 -12.268782,0.889755 -16.279976,1.657352" /><path
   style="fill:none;stroke:#000000;stroke-width:0.060497;stroke-opacity:1"
   id="path328"
   d="m 76.156576,65.120885 c -3.187987,7.2712 -4.156143,16.382992 2.026565,26.040852" /><path
   style="fill:none;stroke:#000000;stroke-width:0.12099399;stroke-opacity:1"
   id="path330"
   d="m 75.4063,64.751673 c -5.281101,9.812838 -3.254536,21.62398 0.944455,27.613422" /><path
   style="fill:none;stroke:#000000;stroke-width:0.12099399;stroke-opacity:1"
   id="path332"
   d="m 73.991443,63.886531 c -6.40697,9.219364 -6.685018,21.376928 -2.177896,31.012909" /><path
   style="fill:none;stroke:#000000;stroke-width:0.12099399;stroke-opacity:1"
   id="path334"
   d="M 72.617609,62.858207 C 64.904266,71.666424 62.07911,85.865138 66.102155,97.260574" /><path
   style="fill:none;stroke:#000000;stroke-width:0.060497;stroke-opacity:1"
   id="path336"
   d="m 74.783654,64.388842 c -3.91456,5.414201 -6.939365,18.161592 -0.526013,29.225193" /><path
   style="fill:none;stroke:#000000;stroke-width:0.060497;stroke-opacity:1"
   id="path338"
   d="m 73.2594,63.347755 c -6.086075,8.366986 -9.110879,20.767043 -4.065891,32.745927" /><path
   style="fill:none;stroke:#000000;stroke-width:0.060497;stroke-opacity:1"
   id="path340"
   d="m 71.903799,62.180863 c -7.525546,8.021476 -12.673548,21.14993 -8.977781,35.918416" /><path
   style="fill:none;stroke:#000000;stroke-width:0.12099399;stroke-opacity:1"
   id="path342"
   d="M 71.244687,61.557305 C 61.564947,70.583402 56.241,84.825873 58.994137,99.147658" /><path
   style="fill:none;stroke:#000000;stroke-width:0.060497;stroke-opacity:1"
   id="path344"
   d="M 70.512645,60.795177 C 61.891313,68.115606 53.270893,81.32155 54.608261,99.712872" /><path
   style="fill:none;stroke:#000000;stroke-width:0.12099399;stroke-opacity:1"
   id="path346"
   d="m 69.901849,59.95465 c -10.726297,7.894758 -20.42518,23.6314 -19.941102,39.9132" /><path
   style="fill:none;stroke:#000000;stroke-width:0.060497;stroke-opacity:1"
   id="path348"
   d="m 69.41777,59.252691 c -4.797934,2.92179 -8.481851,6.62394 -10.974261,9.40078" /><path
   style="fill:none;stroke:#000000;stroke-width:0.12099399;stroke-opacity:1"
   id="path350"
   d="M 68.855292,58.344703 C 55.212675,66.360709 43.796272,78.859223 39.041183,98.755656" /><path
   style="fill:none;stroke:#000000;stroke-width:0.060497;stroke-opacity:1"
   id="path352"
   d="M 59.169171,69.458444 C 52.108559,78.303127 48.436493,87.196125 47.378085,99.886083" /><path
   style="fill:none;stroke:#000000;stroke-width:0.060497;stroke-opacity:1"
   id="path354"
   d="m 57.614834,68.049057 c -3.581814,3.786931 -7.193712,8.614038 -9.862068,13.611621 -3.061269,5.745123 -4.906418,11.980706 -5.825347,17.660192" /><path
   style="fill:none;stroke:#000000;stroke-width:0.12099399;stroke-opacity:1"
   id="path356"
   d="m 58.352346,68.756486 c -4.658455,5.571912 -7.102547,10.060802 -8.935845,13.860497 -2.286381,4.752353 -3.5572,8.617684 -4.645692,17.086773" /><path
   style="fill:none;stroke:#000000;stroke-width:0.060497;stroke-opacity:1"
   id="path358"
   d="m 68.364832,57.485942 c -4.63384,2.196129 -9.964169,5.69316 -12.861345,8.11264" /><path
   style="fill:none;stroke:#000000;stroke-width:0.060497;stroke-opacity:1"
   id="path360"
   d="M 67.529775,55.489462 C 62.974336,56.978162 55.7396,60.014818 52.962761,61.81712" /><path
   style="fill:none;stroke:#000000;stroke-width:0.060497;stroke-opacity:1"
   id="path362"
   d="m 66.960915,53.402729 c -5.075072,0.913459 -12.443817,2.927261 -15.80228,3.968348" /><path
   style="fill:none;stroke:#000000;stroke-width:0.060497;stroke-opacity:1"
   id="path364"
   d="m 66.659164,51.224834 c -4.991202,0.375594 -12.529511,0.793123 -16.455922,1.319135" /><path
   style="fill:none;stroke:#000000;stroke-width:0.060497;stroke-opacity:1"
   id="path366"
   d="m 56.102432,66.487426 c -3.666597,3.225364 -8.524699,8.361516 -11.712686,13.255171 -3.539878,5.429699 -7.18186,13.105665 -8.318669,18.219936" /><path
   style="fill:none;stroke:#000000;stroke-width:0.060497;stroke-opacity:1"
   id="path368"
   d="m 54.723128,64.806371 c -5.113361,3.56905 -11.410935,9.728057 -15.137699,14.500465 -3.865331,4.944708 -7.743426,10.997963 -9.848392,16.321912" /><path
   style="fill:none;stroke:#000000;stroke-width:0.12099399;stroke-opacity:1"
   id="path370"
   d="M 55.442408,65.683364 C 46.894007,72.392085 37.613563,83.330793 32.906792,96.932386" /><path
   style="fill:none;stroke:#000000;stroke-width:0.12099399;stroke-opacity:1"
   id="path372"
   d="M 67.910838,56.475851 C 57.057824,61.158009 50.05191,66.08266 43.681405,71.92624 37.214267,77.860983 31.612271,84.816758 26.506204,94.078968" /><path
   style="fill:none;stroke:#000000;stroke-width:0.12099399;stroke-opacity:1"
   id="path374"
   d="M 67.148711,54.40097 C 44.806363,60.934657 31.164658,68.786569 13.884618,84.260661" /><path
   style="fill:none;stroke:#000000;stroke-width:0.12099399;stroke-opacity:1"
   id="path376"
   d="M 52.980081,61.823501 C 42.162621,67.667993 29.918453,76.451596 20.105615,89.958378" /><path
   style="fill:none;stroke:#000000;stroke-width:0.060497;stroke-opacity:1"
   id="path378"
   d="M 53.410373,62.846357 C 41.280158,70.329056 30.995094,79.61588 23.306365,92.182768" /><path
   style="fill:none;stroke:#000000;stroke-width:0.060497;stroke-opacity:1"
   id="path380"
   d="m 52.326439,60.81888 c -4.755087,2.111346 -10.593197,5.668546 -13.351805,7.496374" /><path
   style="fill:none;stroke:#000000;stroke-width:0.060497;stroke-opacity:1"
   id="path382"
   d="m 51.394748,58.599048 c -4.809785,1.718433 -11.512125,4.525357 -14.506846,6.109778" /><path
   style="fill:none;stroke:#000000;stroke-width:0.060497;stroke-opacity:1"
   id="path384"
   d="M 50.669087,56.288054 C 45.726203,57.61266 38.956401,59.31286 35.23602,60.770563" /><path
   style="fill:none;stroke:#000000;stroke-width:0.060497;stroke-opacity:1"
   id="path386"
   d="m 50.173157,53.83211 c -5.009433,0.870611 -12.293396,1.863382 -16.080328,2.861622" /><path
   style="fill:none;stroke:#000000;stroke-width:0.060497;stroke-opacity:1"
   id="path388"
   d="m 49.948895,51.40078 c -4.512592,0.14495 -11.47019,0.537865 -16.473242,0.907076" /><path
   style="fill:none;stroke:#000000;stroke-width:0.12099399;stroke-opacity:1"
   id="path390"
   d="M 50.995452,57.419393 C 30.898461,63.868299 21.227838,69.476677 8.3555525,77.468069" /><path
   style="fill:none;stroke:#000000;stroke-width:0.12099399;stroke-opacity:1"
   id="path392"
   d="M 66.779499,52.368936 C 39.651978,55.931605 24.697519,61.394122 3.9550905,69.192246" /><path
   style="fill:none;stroke:#000000;stroke-width:0.12099399;stroke-opacity:1"
   id="path394"
   d="M 50.027296,52.555821 C 31.376157,54.733717 22.09389,55.749278 1.1048639,59.851635" /><path
   style="fill:none;stroke:#000000;stroke-width:0.060497;stroke-opacity:1"
   id="path396"
   d="M 39.476945,69.373662 C 33.184841,73.692988 22.988205,83.17308 18.78739,88.946463" /><path
   style="fill:none;stroke:#000000;stroke-width:0.060497;stroke-opacity:1"
   id="path398"
   d="M 39.053035,68.726401 C 32.532111,72.882545 21.910652,82.24777 17.513836,87.861618" /><path
   style="fill:none;stroke:#000000;stroke-width:0.060497;stroke-opacity:1"
   id="path400"
   d="M 38.636417,68.042676 C 31.745369,72.059338 21.134851,81.352545 16.234813,86.740308" /><path
   style="fill:none;stroke:#000000;stroke-width:0.060497;stroke-opacity:1"
   id="path402"
   d="M 38.170572,67.317014 C 31.279524,71.333677 19.973428,80.238527 15.07339,85.618997" /><path
   style="fill:none;stroke:#000000;stroke-width:0.060497;stroke-opacity:1"
   id="path404"
   d="M 37.365598,65.894863 C 29.645874,69.990839 18.808358,77.316737 12.690377,83.131144" /><path
   style="fill:none;stroke:#000000;stroke-width:0.060497;stroke-opacity:1"
   id="path406"
   d="M 36.936219,65.150969 C 29.222876,69.246945 18.599594,75.725935 11.579093,81.818391" /><path
   style="fill:none;stroke:#000000;stroke-width:0.060497;stroke-opacity:1"
   id="path408"
   d="M 36.578858,64.430778 C 28.551,68.490288 17.79462,74.388565 10.459605,80.432705" /><path
   style="fill:none;stroke:#000000;stroke-width:0.060497;stroke-opacity:1"
   id="path410"
   d="m 36.234259,63.686883 c -8.542018,3.98111 -19.17077,9.46733 -26.8202992,15.318202" /><path
   style="fill:none;stroke:#000000;stroke-width:0.060497;stroke-opacity:1"
   id="path412"
   d="M 35.575148,62.016769 C 26.663916,65.773616 15.411606,70.601635 7.3162882,76.003983" /><path
   style="fill:none;stroke:#000000;stroke-width:0.060497;stroke-opacity:1"
   id="path414"
   d="M 35.242401,61.212706 C 26.028507,64.818223 15.098005,69.167632 6.4812313,74.352101" /><path
   style="fill:none;stroke:#000000;stroke-width:0.060497;stroke-opacity:1"
   id="path416"
   d="M 34.95797,60.402263 C 25.707612,63.716968 14.370519,67.891343 5.5303955,72.701129" /><path
   style="fill:none;stroke:#000000;stroke-width:0.060497;stroke-opacity:1"
   id="path418"
   d="M 34.685392,59.585438 C 25.326547,62.567396 14.704177,66.179294 4.6369935,71.025544" /><path
   style="fill:none;stroke:#000000;stroke-width:0.060497;stroke-opacity:1"
   id="path420"
   d="m 33.294237,51.043419 c -4.518975,0.14495 -11.555884,0.187797 -16.586285,0.42391" /><path
   style="fill:none;stroke:#000000;stroke-width:0.060497;stroke-opacity:1"
   id="path422"
   d="m 33.306089,51.884858 c -4.512594,0.151331 -11.510303,0.71381 -16.540705,0.949012" /><path
   style="fill:none;stroke:#000000;stroke-width:0.060497;stroke-opacity:1"
   id="path424"
   d="m 33.402722,52.798316 c -4.48889,0.22335 -11.506657,1.00918 -16.510621,1.486876" /><path
   style="fill:none;stroke:#000000;stroke-width:0.060497;stroke-opacity:1"
   id="path426"
   d="m 33.463801,53.680779 c -4.465187,0.320895 -11.405464,1.42762 -16.41034,1.905317" /><path
   style="fill:none;stroke:#000000;stroke-width:0.060497;stroke-opacity:1"
   id="path428"
   d="M 33.717236,55.429294 C 26.19169,56.627182 22.41661,57.425775 17.519307,58.32647" /><path
   style="fill:none;stroke:#000000;stroke-width:0.060497;stroke-opacity:1"
   id="path430"
   d="m 33.8868,56.288054 c -5.505364,0.876993 -11.307008,2.304613 -16.094003,3.33385" /><path
   style="fill:none;stroke:#000000;stroke-width:0.060497;stroke-opacity:1"
   id="path432"
   d="m 34.032661,57.098498 c -4.876334,0.99824 -10.744529,2.56534 -15.896178,3.836159" /><path
   style="fill:none;stroke:#000000;stroke-width:0.060497;stroke-opacity:1"
   id="path434"
   d="M 34.225928,57.993723 C 29.61579,59.04028 23.227053,60.849875 18.537603,62.271115" /><path
   style="fill:none;stroke:#000000;stroke-width:0.060497;stroke-opacity:1"
   id="path436"
   d="M 16.566648,50.747138 C 12.050408,50.898469 5.1557138,50.90485 0.12485631,51.146434" /><path
   style="fill:none;stroke:#000000;stroke-width:0.060497;stroke-opacity:1"
   id="path438"
   d="m 16.570295,51.485562 c -4.51624,0.14495 -11.3835855,0.3683 -16.41462543,0.610795" /><path
   style="fill:none;stroke:#000000;stroke-width:0.060497;stroke-opacity:1"
   id="path440"
   d="M 16.615876,52.181139 C 12.099637,52.326089 5.2104114,52.846633 0.17991904,53.088215" /><path
   style="fill:none;stroke:#000000;stroke-width:0.060497;stroke-opacity:1"
   id="path442"
   d="M 16.632286,52.858483 C 12.141572,53.075453 5.3562737,53.668927 0.30089302,54.098308" /><path
   style="fill:none;stroke:#000000;stroke-width:0.12099399;stroke-opacity:1"
   id="path444"
   d="M 16.702482,53.632462 C 12.209945,53.850343 5.4328506,54.660786 0.3777439,55.090166" /><path
   style="fill:none;stroke:#000000;stroke-width:0.12099399;stroke-opacity:1"
   id="path446"
   d="m 17.916779,60.317481 c -3.50159,0.846909 -7.83459,2.116817 -12.0764272,3.381254 l -3.5125297,1.022854" /><path
   style="fill:none;stroke:#000000;stroke-width:0.060497;stroke-opacity:1"
   id="path448"
   d="M 16.779058,54.303425 C 12.302931,54.733717 5.518544,55.422913 0.48969265,56.088407" /><path
   style="fill:none;stroke:#000000;stroke-width:0.060497;stroke-opacity:1"
   id="path450"
   d="M 16.855636,54.963449 C 12.379509,55.392829 5.6242941,56.342753 0.59553339,57.013716" /><path
   style="fill:none;stroke:#000000;stroke-width:0.060497;stroke-opacity:1"
   id="path452"
   d="M 16.952269,55.586096 C 12.476143,56.015476 5.7902119,57.359225 0.76126871,58.024719" /><path
   style="fill:none;stroke:#000000;stroke-width:0.060497;stroke-opacity:1"
   id="path454"
   d="M 17.052549,56.342753 C 12.623827,56.941696 5.9342504,58.199752 0.905307,58.919945" /><path
   style="fill:none;stroke:#000000;stroke-width:0.060497;stroke-opacity:1"
   id="path456"
   d="M 17.247639,57.637275 C 12.819829,58.266303 6.4538819,59.772323 1.3281233,60.946509" /><path
   style="fill:none;stroke:#000000;stroke-width:0.060497;stroke-opacity:1"
   id="path458"
   d="M 17.419938,58.344703 C 13.01583,59.17976 6.6872602,60.685781 1.536523,61.883669" /><path
   style="fill:none;stroke:#000000;stroke-width:0.060497;stroke-opacity:1"
   id="path460"
   d="M 17.587679,59.022959 C 12.917373,59.95465 7.1221097,61.45429 1.8027204,62.846357" /><path
   style="fill:none;stroke:#000000;stroke-width:0.060497;stroke-opacity:1"
   id="path462"
   d="M 17.681577,59.645605 C 11.155183,61.284726 7.3089955,62.277496 2.0543316,63.808131" /><path
   style="fill:none;stroke:#000000;stroke-width:0.060497;stroke-opacity:1"
   id="path464"
   d="m 18.018883,60.988445 c -6.526395,1.64003 -10.1519675,3.0558 -15.4066308,4.580053" /><path
   style="fill:none;stroke:#000000;stroke-width:0.060497;stroke-opacity:1"
   id="path466"
   d="M 18.237674,61.678552 C 11.880844,63.469003 8.1631977,64.866539 2.9085335,66.493808" /><path
   style="fill:none;stroke:#000000;stroke-width:0.060497;stroke-opacity:1"
   id="path468"
   d="M 18.416355,62.30758 C 12.343043,64.122645 8.4275717,65.707067 3.2467501,67.419117" /><path
   style="fill:none;stroke:#000000;stroke-width:0.060497;stroke-opacity:1"
   id="path470"
   d="M 18.654292,62.984925 C 12.249145,64.914856 8.690122,66.500189 3.556706,68.22409" /><ellipse
   d="m 109.5601,225.22 c 0,0.8936 -0.72534,1.618 -1.6201,1.618 -0.89475,0 -1.6201,-0.7244 -1.6201,-1.618 0,-0.8936 0.72535,-1.618 1.6201,-1.618 0.89476,0 1.6201,0.7244 1.6201,1.618 z"
   sodipodi:ry="1.618"
   sodipodi:rx="1.6201"
   sodipodi:cy="225.22"
   sodipodi:cx="107.94"
   style="fill:none;stroke:#000000;stroke-width:0.2;stroke-opacity:1"
   id="ellipse472"
   transform="matrix(0,-0.60497005,0.60497005,0,-37.311887,115.34741)"
   ry="1.618"
   rx="1.6201"
   cy="225.22"
   cx="107.94" /><ellipse
   d="m 115.4427,219.28999 c 0,4.13838 -3.35907,7.4932 -7.5027,7.4932 -4.14362,0 -7.5027,-3.35482 -7.5027,-7.4932 0,-4.13838 3.35908,-7.4932 7.5027,-7.4932 4.14363,0 7.5027,3.35482 7.5027,7.4932 z"
   sodipodi:ry="7.4931998"
   sodipodi:rx="7.5026999"
   sodipodi:cy="219.28999"
   sodipodi:cx="107.94"
   style="fill:none;stroke:#000000;stroke-width:0.2;stroke-opacity:1"
   id="ellipse474"
   transform="matrix(0,-0.60497005,0.60497005,0,-37.311887,115.34741)"
   ry="7.4931998"
   rx="7.5026999"
   cy="219.28999"
   cx="107.94" /><circle
   d="m 116.1316,218.58 c 0,4.5241 -3.6675,8.1916 -8.1916,8.1916 -4.52409,0 -8.191597,-3.6675 -8.191597,-8.1916 0,-4.52409 3.667507,-8.1916 8.191597,-8.1916 4.5241,0 8.1916,3.66751 8.1916,8.1916 z"
   sodipodi:ry="8.1915998"
   sodipodi:rx="8.1915998"
   sodipodi:cy="218.58"
   sodipodi:cx="107.94"
   style="fill:none;stroke:#000000;stroke-width:0.1;stroke-opacity:1"
   id="circle476"
   transform="matrix(0,-0.60497005,0.60497005,0,-37.311887,115.34741)"
   r="8.1915998"
   cy="218.58"
   cx="107.94" /><circle
   d="m 117.1139,217.59 c 0,5.0666 -4.10729,9.1739 -9.1739,9.1739 -5.0666,0 -9.173897,-4.1073 -9.173897,-9.1739 0,-5.06661 4.107297,-9.1739 9.173897,-9.1739 5.06661,0 9.1739,4.10729 9.1739,9.1739 z"
   sodipodi:ry="9.1738997"
   sodipodi:rx="9.1738997"
   sodipodi:cy="217.59"
   sodipodi:cx="107.94"
   style="fill:none;stroke:#000000;stroke-width:0.1;stroke-opacity:1"
   id="circle478"
   transform="matrix(0,-0.60497005,0.60497005,0,-37.311887,115.34741)"
   r="9.1738997"
   cy="217.59"
   cx="107.94" /><path
   style="fill:none;stroke:#000000;stroke-width:0.060497;stroke-opacity:1"
   id="path482"
   d="m 98.951096,51.539348 c -0.209677,0.08479 -0.428469,0.133099 -0.647261,0.133099 -0.893402,0 -1.62271,-0.725662 -1.62271,-1.614506 0,-0.896137 0.729308,-1.615416 1.62271,-1.615416 0.218792,0 0.428469,0.04193 0.638144,0.126717" /><path
   style="fill:none;stroke:#000000;stroke-width:0.060497;stroke-opacity:1"
   id="path484"
   d="m 98.859932,51.243066 c -0.06381,0.01185 -0.127629,0.01824 -0.182327,0.01824 -0.67461,0 -1.221591,-0.544246 -1.221591,-1.216121 0,-0.670963 0.546981,-1.22159 1.221591,-1.22159 0.0547,0 0.118513,0.0054 0.182327,0.01824" /><path
   style="fill:none;stroke:#000000;stroke-width:0.12099399;stroke-opacity:1"
   id="path486"
   d="m 99.160772,51.769992 c -0.446701,0.416617 -1.030148,0.647261 -1.631826,0.647261 -1.321872,0 -2.388484,-1.071172 -2.388484,-2.390307 0,-1.318225 1.066612,-2.383013 2.388484,-2.383013 0.592562,0 1.166892,0.22335 1.613593,0.629028" /><path
   style="fill:none;stroke:#000000;stroke-width:0.060497;stroke-opacity:1"
   id="path488"
   d="m 97.346619,52.628752 c -0.03646,0 -0.06382,0.0054 -0.100278,0.0054 -1.422151,0 -2.589044,-1.166892 -2.589044,-2.600894 0,-1.434002 1.166893,-2.595425 2.589044,-2.595425 0.02735,0 0.06381,0 0.09117,0.0063" /><path
   style="fill:none;stroke:#000000;stroke-width:0.060497;stroke-opacity:1"
   id="path490"
   d="m 97.3922,52.875805 c -0.145861,0.02462 -0.319072,0.04832 -0.474051,0.04832 -1.613593,0 -2.926347,-1.311842 -2.926347,-2.920878 0,-0.121247 0.0091,-0.242495 0.02735,-0.357361 m 0.40112,-1.161423 c 0.510515,-0.840527 1.440383,-1.403918 2.497879,-1.403918 0.154978,0 0.337305,0.01824 0.483166,0.04193" /><path
   style="fill:none;stroke:#000000;stroke-width:0.060497;stroke-opacity:1"
   id="path492"
   d="m 97.456015,53.299716 c -0.282607,0.07202 -0.57433,0.11487 -0.87517,0.11487 -1.85062,0 -3.354817,-1.506021 -3.354817,-3.363022 0,-1.863381 1.504197,-3.370314 3.354817,-3.370314 0.30084,0 0.601679,0.04193 0.893402,0.121248" /><path
   style="fill:none;stroke:#000000;stroke-width:0.060497;stroke-opacity:1"
   id="path494"
   d="m 97.547178,53.554062 c -0.47405,0.211499 -0.993683,0.314514 -1.513314,0.314514 -2.105877,0 -3.81975,-1.712051 -3.81975,-3.817017 0,-2.111345 1.713873,-3.824307 3.81975,-3.824307 0.528748,0 1.048381,0.10939 1.52243,0.314514" /><path
   style="fill:none;stroke:#000000;stroke-width:0.060497;stroke-opacity:1"
   id="path496"
   d="m 94.812274,55.005384 c -2.707557,-0.03646 -4.886364,-2.243533 -4.886364,-4.953825 0,-2.728523 2.19704,-4.942884 4.922828,-4.961117" /><path
   style="fill:none;stroke:#000000;stroke-width:0.060497;stroke-opacity:1"
   id="path498"
   d="m 97.975647,54.249639 c -1.002799,0.870611 -2.297321,1.349219 -3.628307,1.349219 -3.063094,0 -5.551858,-2.48694 -5.551858,-5.547299 0,-3.06765 2.488764,-5.554591 5.551858,-5.554591 1.303637,0 2.570809,0.465846 3.573608,1.300903" /><path
   style="fill:none;stroke:#000000;stroke-width:0.060497;stroke-opacity:1"
   id="path500"
   d="m 94.958135,56.130341 c -0.428468,0.09116 -0.866054,0.1331 -1.294522,0.1331 -3.436863,0 -6.226467,-2.782311 -6.226467,-6.211882 0,-3.436863 2.789604,-6.220084 6.226467,-6.220084 0.428468,0 0.866054,0.04831 1.294522,0.13948" /><path
   style="fill:none;stroke:#000000;stroke-width:0.060497;stroke-opacity:1"
   id="path502"
   d="m 98.26737,54.539539 c -1.349221,1.657352 -3.363934,2.620039 -5.506275,2.620039 -3.920031,0 -7.110753,-3.182518 -7.110753,-7.1144 0,-3.926412 3.190722,-7.108929 7.110753,-7.108929 2.133226,0 4.157054,0.956305 5.506275,2.601807" /><path
   style="fill:none;stroke:#000000;stroke-width:0.12099399;stroke-opacity:1"
   id="path504"
   d="m 95.459533,57.419393 c -1.19424,0.623559 -2.516111,0.955394 -3.865331,0.955394 -4.59464,0 -8.316846,-3.732233 -8.316846,-8.323228 0,-4.598285 3.722206,-8.325049 8.316846,-8.325049 1.330987,0 2.661974,0.320895 3.8471,0.943542" /><path
   style="fill:none;stroke:#000000;stroke-width:0.12099399;stroke-opacity:1"
   id="path506"
   d="m 95.84242,58.054803 c -1.713873,1.28267 -3.810633,1.971867 -5.952975,1.971867 -5.506275,0 -9.96964,-4.464276 -9.96964,-9.975111 0,-5.511744 4.463365,-9.982401 9.96964,-9.982401 2.151458,0 4.248218,0.695577 5.971208,1.990099" /><path
   style="fill:none;stroke:#000000;stroke-width:0.060497;stroke-opacity:1"
   id="path508"
   d="m 89.871212,59.693923 c -5.779766,-0.677346 -9.152815,-4.730474 -9.159196,-9.642364 0,-5.209081 3.671154,-9.190191 9.159196,-9.614101" /><path
   style="fill:none;stroke:#000000;stroke-width:0.060497;stroke-opacity:1"
   id="path510"
   d="m 89.907677,59.258161 c -5.706834,-0.617177 -8.481851,-5.056838 -8.487321,-9.206602 -0.0063,-4.411401 3.008395,-8.664178 8.469088,-9.214805" /><path
   style="fill:none;stroke:#000000;stroke-width:0.060497;stroke-opacity:1"
   id="path512"
   d="m 89.92591,58.883479 c -5.54274,-0.725661 -7.870144,-5.402349 -7.870144,-8.868384 0,-3.660214 2.4368,-8.065235 7.888377,-8.862916" /><path
   style="fill:none;stroke:#000000;stroke-width:0.060497;stroke-opacity:1"
   id="path514"
   d="m 89.989724,58.562584 c -5.096039,-0.816825 -7.389712,-5.450666 -7.347777,-8.504643 0,-0.08479 0,-0.127628 0,-0.206029 m 0.247965,-1.718432 c 0.681903,-2.807836 2.933641,-5.886426 7.090697,-6.624851" /><path
   style="fill:none;stroke:#000000;stroke-width:0.060497;stroke-opacity:1"
   id="path516"
   d="m 89.871212,60.474282 c -6.442524,0.06108 -10.804697,-4.911888 -10.804697,-10.422723 0,-0.133098 0,-0.259815 0.0063,-0.387444 m 0.156801,-1.487788 c 0.829587,-4.707683 4.843515,-8.567544 10.641514,-8.567544" /><path
   style="fill:none;stroke:#000000;stroke-width:0.060497;stroke-opacity:1"
   id="path518"
   d="m 89.907677,60.910044 c -7.713342,0.08479 -11.711773,-5.342181 -11.706304,-10.858485 0,-5.541827 4.210842,-11.143825 11.697187,-10.865776" /><path
   style="fill:none;stroke:#000000;stroke-width:0.060497;stroke-opacity:1"
   id="path520"
   d="M 89.944143,61.339423 C 81.916285,62.011299 77.215896,55.785744 77.17943,50.051559 77.149347,44.739464 81.510608,38.048063 89.944143,38.74364" /><path
   style="fill:none;stroke:#000000;stroke-width:0.060497;stroke-opacity:1"
   id="path522"
   d="M 90.017073,61.829883 C 80.639996,62.718727 76.144725,56.161337 76.121023,50.051559 76.096408,44.527052 80.760332,37.019739 89.99884,38.314261" /><path
   style="fill:none;stroke:#000000;stroke-width:0.12099399;stroke-opacity:1"
   id="path524"
   d="M 90.09912,62.252882 C 80.688314,64.134496 74.807357,56.227886 74.873906,50.051559 74.940454,43.93449 80.343715,36.081666 90.090004,37.836564" /><path
   style="fill:none;stroke:#000000;stroke-width:0.060497;stroke-opacity:1"
   id="path526"
   d="M 90.235866,62.809891 C 79.405642,64.987787 73.658696,56.669118 73.6277,50.003243 c -0.01733,-4.671217 3.104118,-10.878539 9.704355,-12.620674 1.880703,-0.50231 4.269186,-0.562479 6.885578,-0.0547" /><path
   style="fill:none;stroke:#000000;stroke-width:0.060497;stroke-opacity:1"
   id="path528"
   d="M 90.372611,63.23289 C 78.504036,66.57859 72.091596,56.941696 72.121679,50.051559 72.146294,44.158752 77.657127,33.517238 90.372611,36.831942" /><path
   style="fill:none;stroke:#000000;stroke-width:0.060497;stroke-opacity:1"
   id="path530"
   d="M 90.573171,63.783517 C 77.978022,67.698077 70.506263,57.95817 70.536347,50.051559 70.560963,42.349156 77.911473,32.222716 90.554938,36.330543" /><path
   style="fill:none;stroke:#000000;stroke-width:0.060497;stroke-opacity:1"
   id="path532"
   d="m 90.746381,64.225659 c -1.950899,0.85238 -4.275567,1.414858 -6.472608,1.414858 -8.588512,0 -15.588046,-7.005003 -15.588046,-15.588958 0,-8.591247 6.999534,-15.597161 15.588046,-15.597161 2.197041,0 4.549058,0.545158 6.490841,1.397536" /><path
   style="fill:none;stroke:#000000;stroke-width:0.12099399;stroke-opacity:1"
   id="path534"
   d="M 75.775513,68.581451 C 67.396676,66.324243 61.571329,58.725766 61.571329,50.051559 c 0,-8.669647 5.813496,-16.262655 14.1741,-18.530802" /><path
   style="fill:none;stroke:#000000;stroke-width:0.060497;stroke-opacity:1"
   id="path536"
   d="m 91.667133,34.249281 c -3.14514,-2.099496 -7.074287,-3.394017 -10.90042,-3.394017 -10.574965,0 -19.195384,8.620419 -19.195384,19.196295 0,10.567673 8.620419,19.189005 19.195384,19.189005 3.899064,0 7.75528,-1.239824 10.90042,-3.41772" /><path
   style="fill:none;stroke:#000000;stroke-width:0.12099399;stroke-opacity:1"
   id="path538"
   d="m 91.019872,64.788138 c -2.333785,1.234354 -5.032225,1.887085 -7.694199,1.887085 -9.159196,0 -16.630956,-7.465378 -16.630956,-16.623664 0,-9.160106 7.47176,-16.630955 16.630957,-16.630955 2.661973,0 5.387761,0.737513 7.730664,1.905317" /><path
   style="fill:none;stroke:#000000;stroke-width:0.12099399;stroke-opacity:1"
   id="path540"
   d="m 76.254121,66.863019 c -7.157246,-2.480558 -11.967032,-9.232126 -11.967032,-16.81146 0,-7.629472 4.858103,-14.404743 12.075516,-16.855217" /><path
   style="fill:none;stroke:#000000;stroke-width:0.060497;stroke-opacity:1"
   id="path542"
   d="m 91.329828,34.82361 c -2.707556,-1.602654 -6.04414,-2.570811 -9.243978,-2.570811 -9.806457,0 -17.798761,7.991393 -17.798761,17.792379 0,9.806457 7.992304,17.80423 17.798761,17.80423 3.199838,0 6.481724,-0.99277 9.189279,-2.589955" /><path
   style="fill:none;stroke:#000000;stroke-width:0.12099399;stroke-opacity:1"
   id="path544"
   d="M 75.370747,70.535084 C 65.443043,68.774717 58.201015,60.136065 58.201015,50.051559 c 0,-10.055332 7.187329,-18.675751 17.078568,-20.472584" /><path
   style="fill:none;stroke:#000000;stroke-width:0.060497;stroke-opacity:1"
   id="path546"
   d="m 92.004437,33.795286 c -3.500677,-2.940022 -8.341459,-4.580054 -13.004472,-4.549058 -11.457427,0.07202 -20.79895,9.346081 -20.79895,20.805331 0,11.457428 9.341523,20.798041 20.79895,20.798041 4.717711,0 9.348816,-1.620888 13.004472,-4.54906" /><path
   style="fill:none;stroke:#000000;stroke-width:0.12099399;stroke-opacity:1"
   id="path548"
   d="M 74.940455,72.63458 C 63.464795,71.49139 54.583647,61.617473 54.583647,50.051559 c 0,-11.567734 8.917613,-21.458974 20.393274,-22.517382" /><path
   style="fill:none;stroke:#000000;stroke-width:0.060497;stroke-opacity:1"
   id="path550"
   d="M 92.460255,33.25104 C 88.40348,29.524277 82.751343,27.303534 77.1849,27.303534 c -12.450197,0 -22.601253,10.206664 -22.601253,22.723412 0,12.516747 10.151056,22.7225 22.601253,22.7225 5.566443,0 11.19123,-2.184277 15.257123,-5.91104" /><path
   style="fill:none;stroke:#000000;stroke-width:0.12099399;stroke-opacity:1"
   id="path552"
   d="m 74.989684,74.963807 c -0.03646,0 -0.07931,0 -0.115778,0 -13.756571,0 -24.913159,-11.155676 -24.913159,-24.912248 0,-13.74563 11.138355,-24.894926 24.883074,-24.91954" /><path
   style="fill:none;stroke:#000000;stroke-width:0.12099399;stroke-opacity:1"
   id="path554"
   d="M 92.943422,32.736877 C 88.37613,27.969028 81.58992,25.132019 74.873906,25.132019 c -13.720106,0 -24.913159,11.192143 -24.913159,24.913159 0,13.726488 11.193053,24.918629 24.913159,24.918629 6.716014,0 13.429294,-2.922701 18.005701,-7.68964" /><path
   style="fill:none;stroke:#000000;stroke-width:0.060497;stroke-opacity:1"
   id="path556"
   d="M 76.502086,66.167442 C 69.937403,63.59025 65.479507,57.026478 65.479507,49.918461 c 0,-7.11531 4.518975,-13.442968 11.089128,-16.01469" /><path
   style="fill:none;stroke:#000000;stroke-width:0.060497;stroke-opacity:1"
   id="path558"
   d="M 75.908611,67.728162 C 67.524305,65.029722 62.950633,57.800456 62.950633,49.90661 c 0,-7.89567 4.924652,-14.695554 12.994444,-17.557177" /><path
   style="fill:none;stroke:#000000;stroke-width:0.060497;stroke-opacity:1"
   id="path560"
   d="M 75.491082,69.524993 C 65.527825,66.996119 59.895744,59.046662 60.01061,49.893847 60.119094,40.958002 65.606225,33.087857 75.485613,30.582684" /><path
   style="fill:none;stroke:#000000;stroke-width:0.060497;stroke-opacity:1"
   id="path562"
   d="M 75.134634,71.55794 C 62.865851,69.391895 56.362247,59.766853 56.501728,50.051559 56.640296,40.122944 62.974336,30.486051 75.122782,28.580734" /><path
   style="fill:none;stroke:#000000;stroke-width:0.060497;stroke-opacity:1"
   id="path564"
   d="M 74.868436,73.741305 C 60.476456,72.942712 52.296356,60.861727 52.369286,50.045178 52.441305,39.80296 59.217487,27.69736 74.916753,26.256977" /><path
   style="fill:none;stroke:#000000;stroke-width:0.060497;stroke-opacity:1"
   id="path566"
   d="M 59.350587,70.813134 C 52.484153,66.027962 48.709072,58.121353 48.757389,50.045178 48.805711,42.458553 52.053861,34.485394 59.253953,29.215232" /><path
   style="fill:none;stroke:#000000;stroke-width:0.12099399;stroke-opacity:1"
   id="path568"
   d="M 58.655009,71.672805 C 51.679178,67.080901 47.431871,58.574435 47.431871,50.051559 c 0,-8.531078 4.332089,-16.776816 11.307919,-21.603923" /><path
   style="fill:none;stroke:#000000;stroke-width:0.060497;stroke-opacity:1"
   id="path570"
   d="M 74.838352,23.764567 C 60.052545,22.881192 47.577733,35.25299 47.378085,50.081644 47.183906,64.914856 59.768116,76.995842 74.813738,76.263799" /><path
   style="fill:none;stroke:#000000;stroke-width:0.12099399;stroke-opacity:1"
   id="path572"
   d="m 75.001535,77.655866 c -0.931691,0.09025 -1.875233,0.138568 -2.806924,0.138568 -15.324583,0 -27.751079,-12.425584 -27.751079,-27.742875 0,-15.324582 12.426496,-27.751077 27.751079,-27.751077 0.907076,0 1.826916,0.04922 2.722142,0.133098" /><path
   style="fill:none;stroke:#000000;stroke-width:0.060497;stroke-opacity:1"
   id="path574"
   d="m 93.47217,32.222716 c -5.205436,-6.177238 -13.153069,-9.922234 -21.277559,-9.922234 -15.281737,0 -27.751079,12.46296 -27.751079,27.744696 0,15.287206 12.469342,27.749256 27.751079,27.749256 8.12449,0 16.035658,-3.792402 21.241094,-9.96964" /><path
   style="fill:none;stroke:#000000;stroke-width:0.12099399;stroke-opacity:1"
   id="path576"
   d="M 56.332164,75.749636 C 46.984259,70.577932 41.177145,60.73501 41.177145,50.051559 c 0,-10.68436 5.801644,-20.527282 15.136786,-25.706281" /><path
   style="fill:none;stroke:#000000;stroke-width:0.060497;stroke-opacity:1"
   id="path578"
   d="m 75.273202,21.042425 c -1.554338,-0.247965 -3.13329,-0.381063 -4.70586,-0.381063 -16.225277,0 -29.390197,13.158538 -29.390197,29.383816 0,16.230749 13.16492,29.389287 29.390197,29.389287 1.536106,0 3.084973,-0.121247 4.597375,-0.362831" /><path
   style="fill:none;stroke:#000000;stroke-width:0.060497;stroke-opacity:1"
   id="path580"
   d="M 56.882791,74.600977 C 48.612439,70.032775 42.834497,60.402263 42.834497,50.051559 c 0,-10.357996 5.601996,-19.910106 14.048294,-24.502011" /><path
   style="fill:none;stroke:#000000;stroke-width:0.12099399;stroke-opacity:1"
   id="path582"
   d="m 75.424533,80.481022 c -2.219831,0.489548 -4.49436,0.737513 -6.768889,0.737513 -17.218048,0 -31.175179,-13.95622 -31.175179,-31.166976 0,-17.218048 13.957131,-31.175179 31.175179,-31.175179 2.279999,0 4.56091,0.254346 6.787122,0.750276" /><path
   style="fill:none;stroke:#000000;stroke-width:0.060497;stroke-opacity:1"
   id="path584"
   d="M 94.055616,31.841653 C 88.321433,23.795562 78.691832,18.791598 68.691198,18.791598 c -17.187053,0 -31.210733,14.02368 -31.210733,31.217115 0,17.193434 14.02368,31.209822 31.210733,31.209822 9.96417,0 19.56642,-4.960206 25.300604,-12.957979" /><path
   style="fill:none;stroke:#000000;stroke-width:0.06053255;stroke-miterlimit:4;stroke-opacity:1;stroke-dasharray:none"
   id="path586"
   d="m 55.606502,23.28687 c -9.892151,5.19085 -16.256275,15.638186 -16.256275,26.84309 0,11.203993 6.357743,21.699646 16.249894,26.769248" /><path
   style="fill:none;stroke:#000000;stroke-width:0.12099399;stroke-opacity:1"
   id="path588"
   d="m 53.863455,19.323994 c -12.287014,5.082364 -20.520902,17.44778 -20.520902,30.727565 0,13.272494 8.215655,25.619677 20.497201,30.69566" /><path
   style="fill:none;stroke:#000000;stroke-width:0.060497;stroke-opacity:1"
   id="path590"
   d="m 75.842062,82.02989 c -2.873473,0.780359 -6.037758,1.312754 -9.04433,1.312754 -18.427788,0 -33.455179,-14.967223 -33.455179,-33.315698 0,-18.343006 15.027391,-33.310229 33.455179,-33.310229 3.006572,0 6.140773,0.520544 9.020627,1.300903" /><path
   style="fill:none;stroke:#000000;stroke-width:0.060497;stroke-opacity:1"
   id="path592"
   d="M 54.359385,20.769847 C 42.997679,25.730964 35.59338,37.255852 35.520449,50.051559 35.447522,62.59201 42.701398,74.140601 54.4624,79.428083" /><path
   style="fill:none;stroke:#000000;stroke-width:0.12099399;stroke-opacity:1"
   id="path594"
   d="M 94.037383,69.809424 C 87.482728,79.694281 76.193042,85.764858 64.263387,85.764858 44.594864,85.764858 28.551,69.718261 28.551,50.051559 c 0,-19.673992 16.043864,-35.717855 35.712387,-35.717855 12.280634,0 23.155527,5.540917 29.56432,15.862447" /><path
   style="fill:none;stroke:#000000;stroke-width:0.12099399;stroke-opacity:1"
   id="path596"
   d="M 51.588014,87.104961 C 35.066456,82.59875 23.092131,67.255934 23.092131,49.98501 c 0,-17.272746 11.865839,-32.584566 28.381018,-37.091689" /><path
   style="fill:none;stroke:#000000;stroke-width:0.060497;stroke-opacity:1"
   id="path598"
   d="m 77.03995,14.859718 c -4.652073,-2.104966 -10.247688,-3.321087 -15.505086,-3.321087 -21.174544,0 -38.442733,17.271835 -38.442733,38.446379 0,21.173633 17.268189,38.441822 38.442733,38.441822 5.257398,0 10.683449,-1.276289 15.486853,-3.227188" /><path
   style="fill:none;stroke:#000000;stroke-width:0.12099399;stroke-opacity:1"
   id="path600"
   d="M 50.674557,91.05234 C 31.03794,87.469616 16.611318,69.881443 16.611318,50.051559 c 0,-20.001269 14.257058,-37.266722 34.063239,-40.8485367" /><path
   style="fill:none;stroke:#000000;stroke-width:0.060497;stroke-opacity:1"
   id="path602"
   d="M 94.648178,29.712073 C 87.637706,16.027521 73.893898,8.4472774 58.395193,8.4472774 35.387351,8.4472774 16.652342,26.965317 16.624992,49.97316 16.597642,72.979178 35.369118,91.945742 58.395193,91.717834 73.4709,91.571972 87.756219,83.197695 94.985484,70.378284" /><path
   style="fill:none;stroke:#000000;stroke-width:0.12099399;stroke-opacity:1"
   id="path604"
   d="m 15.594845,35.325921 c -1.555249,4.610138 -2.602717,9.769992 -2.602717,14.725638 0,4.948356 1.062966,10.156525 2.618215,14.766664" /><path
   style="fill:none;stroke:#000000;stroke-width:0.12099399;stroke-opacity:1"
   id="path606"
   d="M 50.130311,95.337024 C 26.966579,93.039704 9.2015495,73.366623 9.1459394,50.148193 9.0903305,26.729203 26.948346,7.0378891 50.130311,4.8289985" /><path
   style="fill:none;stroke:#000000;stroke-width:0.060497;stroke-opacity:1"
   id="path608"
   d="M 78.788466,11.720047 C 71.843631,7.370636 63.143899,4.6238797 54.765063,4.5509492 29.640405,4.3449203 9.1468507,24.787422 9.1459394,50.039709 c 0,25.244082 20.4944656,45.479642 45.6191236,45.479642 8.378836,0 17.09042,-2.744021 24.035254,-7.1381" /><path
   style="fill:none;stroke:#000000;stroke-width:0.12099399;stroke-opacity:1"
   id="path610"
   d="M 8.0656528,67.679844 C 5.8932257,62.404213 4.7081003,55.991773 4.7081003,50.148193 c 0,-5.850873 1.2079172,-12.305248 3.3803431,-17.580879" /><path
   style="fill:none;stroke:#000000;stroke-width:0.060497;stroke-opacity:1"
   id="path612"
   d="M 29.815438,21.35147 C 20.369077,31.242708 17.858435,42.355538 18.037116,49.996862 18.335219,62.809891 22.363734,70.523234 29.682339,78.82914" /><path
   style="fill:none;stroke:#000000;stroke-width:0.060497;stroke-opacity:1"
   id="path614"
   d="M 30.559332,22.173764 C 20.627069,32.88821 19.399098,44.055737 19.37266,50.015095 c -0.04467,9.90856 4.078655,20.828122 11.162969,27.900586" /><path
   style="fill:none;stroke:#000000;stroke-width:0.060497;stroke-opacity:1"
   id="path616"
   d="m 31.38892,22.947742 c -9.679739,10.418165 -10.739059,21.56199 -10.762762,27.1886 -0.0392,9.357932 4.186228,20.623005 10.689832,27.029064" /><path
   style="fill:none;stroke:#000000;stroke-width:0.060497;stroke-opacity:1"
   id="path618"
   d="M 32.156517,23.674316 C 23.609028,33.47439 21.991788,42.64635 21.887861,50.12996 c -0.133099,9.522027 3.940997,19.849028 10.226721,26.316166" /><path
   style="fill:none;stroke:#000000;stroke-width:0.060497;stroke-opacity:1"
   id="path620"
   d="m 33.633365,25.047237 c -8.633182,10.653366 -9.419924,19.764246 -9.389839,25.119189 0.0547,9.073502 3.593664,18.450579 9.383458,24.887633" /><path
   style="fill:none;stroke:#000000;stroke-width:0.060497;stroke-opacity:1"
   id="path622"
   d="m 34.510358,25.658033 c -7.809977,9.305058 -9.25583,18.276457 -9.225745,24.399908 0.04193,8.632271 3.369402,18.214466 9.159196,24.330624" /><path
   style="fill:none;stroke:#000000;stroke-width:0.060497;stroke-opacity:1"
   id="path624"
   d="m 35.169471,26.372755 c -7.943076,9.727144 -8.518317,17.937328 -8.6815,23.690656 -0.236113,8.54202 3.618279,17.972883 8.651415,23.720741" /><path
   style="fill:none;stroke:#000000;stroke-width:0.060497;stroke-opacity:1"
   id="path626"
   d="m 35.889662,26.922471 c -7.375126,9.316909 -8.209273,17.762294 -8.348753,23.14094 -0.20603,7.991392 3.405868,17.538033 8.324139,23.127266" /><path
   style="fill:none;stroke:#000000;stroke-width:0.060497;stroke-opacity:1"
   id="path628"
   d="m 37.287198,28.133122 c -7.338661,9.503793 -7.61671,17.259072 -7.719725,21.930289 -0.1568,6.932072 2.55896,15.789517 7.713343,21.960374" /><path
   style="fill:none;stroke:#000000;stroke-width:0.060497;stroke-opacity:1"
   id="path630"
   d="m 38.024711,28.6172 c -6.726954,8.777221 -7.380597,17.084039 -7.470849,21.446211 -0.13948,6.478989 2.231683,15.147726 7.435295,21.409746" /><path
   style="fill:none;stroke:#000000;stroke-width:0.060497;stroke-opacity:1"
   id="path632"
   d="m 38.575338,29.113129 c -6.605706,8.90485 -6.956686,16.872539 -7.035998,20.944812 -0.120337,6.048699 1.972777,14.487702 7.090696,20.931138" /><path
   style="fill:none;stroke:#000000;stroke-width:0.060497;stroke-opacity:1"
   id="path634"
   d="m 39.252682,29.657375 c -6.27934,8.953167 -6.768889,16.606341 -6.835438,20.400566 -0.10939,5.637551 1.78407,13.949838 6.871904,20.392361" /><path
   style="fill:none;stroke:#000000;stroke-width:0.060497;stroke-opacity:1"
   id="path636"
   d="M 4.7226869,68.841268 C 2.3943715,63.154489 1.0383145,56.318139 1.0383145,50.057941 c 0,-6.304867 1.3998154,-13.080137 3.5649482,-18.79153" /><path
   style="fill:none;stroke:#000000;stroke-width:0.060497;stroke-opacity:1"
   id="path638"
   d="M 20.905119,88.782369 C 8.9918731,79.494633 2.0224244,65.217519 2.0224244,50.099877 c 0,-15.113084 6.9694487,-29.396581 18.8763126,-38.676111" /><path
   style="fill:none;stroke:#000000;stroke-width:0.060497;stroke-opacity:1"
   id="path640"
   d="M 6.4930817,68.21224 C 5.4939296,66.058046 4.5704444,62.519079 4.5631505,62.488995 3.6569858,58.713915 3.0270461,55.677259 2.9559386,50.057941 2.8757147,43.753074 4.1529154,37.648767 6.4985518,31.931904" /><path
   style="fill:none;stroke:#000000;stroke-width:0.060497;stroke-opacity:1"
   id="path642"
   d="M 7.3354324,67.903195 C 7.1120819,67.401796 6.6571769,66.252224 6.4484118,65.683364 m -0.00369,0 C 4.9405223,61.394122 3.9012592,55.634412 3.8967004,50.093495 3.8903559,43.886173 5.0654166,37.891262 7.3235359,32.271032" /><path
   style="fill:none;stroke:#000000;stroke-width:0.060497;stroke-opacity:1"
   id="path644"
   d="M 8.904356,67.274167 C 6.9653095,62.906524 5.674434,56.161337 5.6689639,49.652263 5.6635423,43.280848 6.7073157,38.931437 8.9080035,32.851744" /><path
   style="fill:none;stroke:#000000;stroke-width:0.060497;stroke-opacity:1"
   id="path646"
   d="M 9.7312088,66.966034 C 8.000015,62.525461 6.5988318,56.572485 6.5377527,50.063411 6.4784951,43.813242 7.5177594,39.257803 9.6819813,33.105179" /><path
   style="fill:none;stroke:#000000;stroke-width:0.060497;stroke-opacity:1"
   id="path648"
   d="M 10.447754,66.638757 C 8.7165601,62.199096 7.5040853,57.17781 7.4420938,50.662356 7.3828373,44.412187 8.2972073,39.578698 10.460517,33.426074" /><path
   style="fill:none;stroke:#000000;stroke-width:0.060497;stroke-opacity:1"
   id="path650"
   d="M 11.293751,66.378941 C 9.5625571,61.938368 8.2534487,56.578866 8.2379509,50.057941 8.2224588,43.849708 9.136823,39.911445 11.301045,33.758821" /><path
   style="fill:none;stroke:#000000;stroke-width:0.060497;stroke-opacity:1"
   id="path652"
   d="M 12.738693,65.852928 C 11.208058,61.375889 9.8579269,56.572485 9.9016855,50.124491 9.9445281,43.916257 10.681133,40.395523 12.784275,34.285745" /><path
   style="fill:none;stroke:#000000;stroke-width:0.060497;stroke-opacity:1"
   id="path654"
   d="m 13.509024,65.616815 c -1.530635,-4.470658 -2.817863,-9.04433 -2.811481,-15.492324 0.0073,-6.208234 0.732043,-9.402602 2.79963,-15.555227" /><path
   style="fill:none;stroke:#000000;stroke-width:0.060497;stroke-opacity:1"
   id="path656"
   d="m 14.143522,65.338765 c -1.291786,-4.13791 -2.66015,-8.784513 -2.649211,-15.17872 0.0091,-6.098838 1.13772,-10.907712 2.699351,-15.341904" /><path
   style="fill:none;stroke:#000000;stroke-width:0.060497;stroke-opacity:1"
   id="path658"
   d="m 14.927528,65.041573 c -1.291787,-4.13791 -2.652858,-8.583955 -2.642829,-14.983632 0.01004,-6.093368 1.072994,-10.545792 2.633712,-14.979985" /><path
   style="fill:none;stroke:#000000;stroke-width:0.060497;stroke-opacity:1"
   id="path660"
   d="m 16.29498,64.552025 c -1.564365,-4.761469 -2.465972,-8.336901 -2.482381,-14.494084 -0.0155,-5.90557 0.931691,-9.976932 2.465061,-14.490437" /><path
   style="fill:none;stroke:#000000;stroke-width:0.060497;stroke-opacity:1"
   id="path662"
   d="M 16.963209,64.327763 C 15.397932,59.567205 14.511823,55.25973 14.522763,50.063411 14.533722,44.315553 15.4581,40.340824 16.992381,35.821851" /><path
   style="fill:none;stroke:#000000;stroke-width:0.060497;stroke-opacity:1"
   id="path664"
   d="m 17.624144,64.026012 c -1.564365,-4.767851 -2.374808,-8.748049 -2.365692,-13.944368 0.01185,-5.741476 0.866053,-9.511088 2.399423,-14.030061" /><path
   style="fill:none;stroke:#000000;stroke-width:0.060497;stroke-opacity:1"
   id="path666"
   d="m 18.308782,63.856448 c -1.564366,-4.76147 -2.349283,-8.929465 -2.312818,-13.774804 0.04102,-5.438814 0.783094,-9.26221 2.317376,-13.775715" /><path
   style="fill:none;stroke:#000000;stroke-width:0.060497;stroke-opacity:1"
   id="path668"
   d="m 96.462332,41.417466 c -1.82327,-1.808683 -3.892681,-3.006573 -6.244699,-3.526204" /><path
   style="fill:none;stroke:#000000;stroke-width:0.060497;stroke-opacity:1"
   id="path670"
   d="M 98.622907,43.777689 C 97.200756,40.062776 93.918871,36.656908 91.092802,35.344154" /><path
   style="fill:none;stroke:#000000;stroke-width:0.060497;stroke-opacity:1"
   id="path672"
   d="M 98.622907,45.21716 C 97.902716,44.092203 97.401316,43.245293 95.915351,42.065638" /><path
   style="fill:none;stroke:#000000;stroke-width:0.060497;stroke-opacity:1"
   id="path674"
   d="M 97.401316,39.124704 C 96.398518,37.207536 94.584364,34.400612 93.071051,32.845363" /><path
   style="fill:none;stroke:#000000;stroke-width:0.060497;stroke-opacity:1"
   id="path676"
   d="M 22.419345,13.129434 C 30.003235,6.892028 39.36846,3.3895266 50.070143,2.5727017" /><path
   style="fill:none;stroke:#000000;stroke-width:0.060497;stroke-opacity:1"
   id="path678"
   d="M 26.91735,18.229119 C 31.921315,13.474032 40.039424,8.2594804 50.354573,7.0251263" /><path
   style="fill:none;stroke:#000000;stroke-width:0.060497;stroke-opacity:1"
   id="path680"
   d="m 31.049792,22.506511 c 3.763229,-3.896327 9.232127,-8.8383 20.000358,-11.415492" /><path
   style="fill:none;stroke:#000000;stroke-width:0.060497;stroke-opacity:1"
   id="path682"
   d="m 34.915124,25.978929 c 3.769611,-4.144294 8.826449,-8.886618 17.103182,-11.294246" /><path
   style="fill:none;stroke:#000000;stroke-width:0.060497;stroke-opacity:1"
   id="path684"
   d="m 38.37569,28.780383 c 4.137911,-4.828019 8.160956,-8.481852 14.65909,-10.884009" /><path
   style="fill:none;stroke:#000000;stroke-width:0.060497;stroke-opacity:1"
   id="path686"
   d="M 22.668221,13.794928 C 16.728918,18.689496 12.310225,24.872204 8.9408219,32.736877" /><path
   style="fill:none;stroke:#000000;stroke-width:0.060497;stroke-opacity:1"
   id="path688"
   d="M 23.572562,14.901652 C 17.652405,20.0688 13.818068,25.531315 10.497894,33.317589" /><path
   style="fill:none;stroke:#000000;stroke-width:0.060497;stroke-opacity:1"
   id="path690"
   d="m 25.484261,16.777797 c -5.30845,4.833488 -8.608569,9.691591 -11.954269,17.652898" /><path
   style="fill:none;stroke:#000000;stroke-width:0.060497;stroke-opacity:1"
   id="path692"
   d="m 26.373104,17.751423 c -5.658518,5.480749 -7.95219,9.292294 -11.401818,17.205286" /><path
   style="fill:none;stroke:#000000;stroke-width:0.060497;stroke-opacity:1"
   id="path694"
   d="M 27.214544,18.683114 C 21.391932,24.70264 19.756459,27.497712 16.335092,35.434406" /><path
   style="fill:none;stroke:#000000;stroke-width:0.060497;stroke-opacity:1"
   id="path696"
   d="m 28.103388,19.663122 c -5.184467,5.365883 -7.224707,8.488233 -10.421811,16.273594" /><path
   style="fill:none;stroke:#000000;stroke-width:0.060497;stroke-opacity:1"
   id="path698"
   d="m 96.434984,58.720296 c -1.814154,1.802302 -3.892682,3.00019 -6.2447,3.520734" /><path
   style="fill:none;stroke:#000000;stroke-width:0.060497;stroke-opacity:1"
   id="path700"
   d="m 98.714071,56.246119 c -1.422151,3.708531 -4.740502,7.168185 -7.56657,8.47547" /><path
   style="fill:none;stroke:#000000;stroke-width:0.060497;stroke-opacity:1"
   id="path702"
   d="m 98.714071,54.800266 c -0.729308,1.124958 -1.267173,1.995569 -2.762254,3.176136" /><path
   style="fill:none;stroke:#000000;stroke-width:0.060497;stroke-opacity:1"
   id="path704"
   d="m 97.446898,60.994826 c -1.011914,1.91808 -2.898999,4.725004 -4.467011,6.207321" /><path
   style="fill:none;stroke:#000000;stroke-width:0.060497;stroke-opacity:1"
   id="path706"
   d="m 22.381967,87.03203 c 7.5611,6.217351 16.937266,9.754494 27.603394,10.584082" /><path
   style="fill:none;stroke:#000000;stroke-width:0.060497;stroke-opacity:1"
   id="path708"
   d="m 26.923732,81.770073 c 4.954736,4.970235 13.140306,9.929528 23.460925,11.260516" /><path
   style="fill:none;stroke:#000000;stroke-width:0.060497;stroke-opacity:1"
   id="path710"
   d="m 31.025178,77.667716 c 5.402349,4.949267 9.11726,8.416215 20.079671,11.379027" /><path
   style="fill:none;stroke:#000000;stroke-width:0.060497;stroke-opacity:1"
   id="path712"
   d="m 34.87957,74.183448 c 3.768699,4.149762 8.959548,8.826449 17.23537,11.225872" /><path
   style="fill:none;stroke:#000000;stroke-width:0.060497;stroke-opacity:1"
   id="path714"
   d="M 22.815906,86.412119 C 16.839227,81.672528 12.237294,75.223623 8.8915932,67.262315" /><path
   style="fill:none;stroke:#000000;stroke-width:0.060497;stroke-opacity:1"
   id="path716"
   d="M 23.657344,85.263459 C 17.770918,80.347923 13.788896,74.600977 10.444108,66.638757" /><path
   style="fill:none;stroke:#000000;stroke-width:0.060497;stroke-opacity:1"
   id="path718"
   d="M 25.429562,83.179462 C 20.121113,78.351443 16.848343,73.584504 13.503554,65.616815" /><path
   style="fill:none;stroke:#000000;stroke-width:0.060497;stroke-opacity:1"
   id="path720"
   d="M 26.318407,82.204924 C 20.520409,76.796193 18.267759,73.009263 14.922059,65.041573" /><path
   style="fill:none;stroke:#000000;stroke-width:0.060497;stroke-opacity:1"
   id="path722"
   d="M 27.159846,81.273232 C 21.22966,75.290173 19.641593,72.519714 16.295893,64.558406" /><path
   style="fill:none;stroke:#000000;stroke-width:0.060497;stroke-opacity:1"
   id="path724"
   d="M 28.097007,80.336072 C 22.785821,75.060441 20.706382,71.896155 17.626879,64.026012" /><path
   style="fill:none;stroke:#000000;stroke-width:0.060497;stroke-opacity:1"
   id="path726"
   d="m 38.388454,71.345528 c 4.13791,4.816167 8.329607,8.518317 14.827741,10.920475" /><path
   style="fill:none;stroke:#000000;stroke-width:0.060497;stroke-opacity:1"
   id="path730"
   d="M 57.971283,72.579882 C 51.043769,67.854878 46.083563,59.67022 45.962316,51.557581 45.84745,43.977336 47.837549,34.53371 58.019599,27.497712" /><ellipse
   d="m 190.563,144.3 c 0,45.56847 -36.9871,82.50901 -82.613,82.50901 -45.625903,0 -82.613002,-36.94054 -82.613002,-82.50901 0,-45.568461 36.987099,-82.509 82.613002,-82.509 45.6259,0 82.613,36.940539 82.613,82.509 z"
   sodipodi:ry="82.509003"
   sodipodi:rx="82.612999"
   sodipodi:cy="144.3"
   sodipodi:cx="107.95"
   style="fill:none;stroke:#000000;stroke-width:0.33059488;stroke-opacity:1;stroke-miterlimit:4;stroke-dasharray:none"
   id="ellipse740"
   transform="matrix(0,-0.60497005,0.60497005,0,-37.311887,115.34741)"
   ry="82.509003"
   rx="82.612999"
   cy="144.3"
   cx="107.95" /></svg>